<?xml version="1.0" encoding="UTF-8"?>
<svg version="1.1" xmlns="http://www.w3.org/2000/svg" width="557" height="412">
<path d="M0 0 C183.81 0 367.62 0 557 0 C557 135.96 557 271.92 557 412 C373.19 412 189.38 412 0 412 C0 276.04 0 140.08 0 0 Z " fill="#0052FD" transform="translate(0,0)"/>
<path d="M0 0 C2.2421875 0.953125 2.2421875 0.953125 3.875 2.25 C4.42929687 2.66765625 4.98359375 3.0853125 5.5546875 3.515625 C9.65740859 7.72923045 9.33688542 12.36014587 9.4140625 17.921875 C9.44311172 19.21185394 9.44311172 19.21185394 9.4727478 20.52789307 C9.53241814 23.26849521 9.5788786 26.00913964 9.625 28.75 C9.66319134 30.61069517 9.70224375 32.47137288 9.7421875 34.33203125 C9.83810935 38.88787864 9.92218668 43.44380879 10 48 C10.61488281 47.62746094 11.22976563 47.25492188 11.86328125 46.87109375 C13.07564453 46.16146484 13.07564453 46.16146484 14.3125 45.4375 C15.11300781 44.96183594 15.91351563 44.48617187 16.73828125 43.99609375 C19 43 19 43 22 44 C21.99777939 44.55677083 21.99555878 45.11354166 21.99327087 45.68718433 C21.94183305 59.27721832 21.93541772 72.86664386 21.97665405 86.45672321 C21.99525343 93.02908425 21.99921997 99.60076249 21.96923828 106.1730957 C21.94082609 112.52123893 21.95151411 118.86824426 21.98880005 125.21632957 C21.9962208 127.63268999 21.98978256 130.04913574 21.96896362 132.46541786 C21.38235169 149.3011044 21.38235169 149.3011044 29.28515625 163.47746277 C29.85105469 163.97990005 30.41695313 164.48233734 31 165 C35.10610937 163.10478754 38.06407397 160.33783074 41.3125 157.25 C42.47758746 156.16767036 43.64294934 155.08563604 44.80859375 154.00390625 C46.62324639 152.3074514 48.40313492 150.59686508 50.16015625 148.83984375 C51.875 147.1875 51.875 147.1875 55 145 C58.9375 145.125 58.9375 145.125 62 146 C62 144.02 62 142.04 62 140 C60.35 139.67 58.7 139.34 57 139 C57 137.02 57 135.04 57 133 C56.34 133 55.68 133 55 133 C54.88149684 120.64181312 54.88149684 120.64181312 57.51953125 116.76953125 C61.82420256 113.09923256 66.03483074 111.4594898 71.80078125 111.5234375 C76.2270066 112.48258402 79.14369456 115.64366987 82 119 C83.91558965 122.6646063 84.08752633 126.00853458 84.375 130.0625 C84.79070709 135.63297504 86.28215527 140.51039227 88.0234375 145.796875 C89.19705656 149.6463455 89.85791271 153.4703995 90.4921875 157.4375 C91.00144716 160.00730258 91.76882343 162.30019582 92.6875 164.75 C94.12127938 168.88222569 94.27042173 171.71232665 93 176 C91.74123047 177.51400391 91.74123047 177.51400391 90.45703125 179.05859375 C87.09590085 183.6304084 87.43087263 187.95357057 87.6875 193.4375 C87.71005859 194.35982422 87.73261719 195.28214844 87.75585938 196.23242188 C87.81434606 198.49000802 87.89622627 200.74411871 88 203 C89.04414062 203.35384766 89.04414062 203.35384766 90.109375 203.71484375 C93.52843826 205.23494079 96.32483783 207.26986399 99.25 209.5625 C99.81992676 210.00795166 100.38985352 210.45340332 100.97705078 210.91235352 C109.79800626 217.91620707 116.30071667 225.25511141 122 235 C122.78697266 236.24523437 122.78697266 236.24523437 123.58984375 237.515625 C128.79026011 246.67757736 129.45247791 257.70592907 127.12109375 267.80859375 C124.80707852 275.82990745 121.35810923 282.56380038 116 289 C115.30777344 289.84175781 114.61554688 290.68351562 113.90234375 291.55078125 C91.2589153 317.86827569 56.39823435 329.31479726 23.76391602 337.31103516 C21.90007364 337.7756375 20.041103 338.26017811 18.18725586 338.76318359 C10.70613199 340.75789889 3.24637194 341.94276578 -4.43579102 342.88037109 C-6.43290488 343.12443843 -8.42834852 343.37966396 -10.42382812 343.63671875 C-27.03918992 345.72494334 -43.39471742 346.2413009 -60.125 346.25 C-61.87076324 346.25101212 -61.87076324 346.25101212 -63.65179443 346.25204468 C-80.63013305 346.23639684 -97.2259052 345.86175885 -114 343 C-115.05574219 342.82839355 -116.11148438 342.65678711 -117.19921875 342.47998047 C-157.52539213 335.80468638 -208.21016538 322.17780403 -234.28515625 287.61328125 C-242.88257962 274.51151306 -245.53932587 262.44372835 -244 247 C-239.08696312 226.64599005 -220.80972201 211.82617713 -203.8125 201.4375 C-192.18696697 194.53324676 -180.1897527 188.98160038 -167.171875 185.30078125 C-163.52550148 183.80540886 -161.66946375 181.84989544 -159 179 C-156.1875 178.1875 -156.1875 178.1875 -154 178 C-150.03675486 182.30295187 -147.51316295 186.63827211 -145.015625 191.92578125 C-144.16852791 193.93950885 -144.16852791 193.93950885 -143 195 C-139.50240937 194.92421255 -136.01339313 194.82371211 -132.52148438 194.609375 C-128.46389695 194.49676199 -125.79901023 194.69839616 -122.52734375 197.23828125 C-120.10464018 199.88565594 -119.21817319 200.98164261 -118.75 204.4375 C-118.61207031 205.2109375 -118.47414063 205.984375 -118.33203125 206.78125 C-118.22246094 207.5134375 -118.11289063 208.245625 -118 209 C-117.64244802 212.41445587 -117.64244802 212.41445587 -116 215 C-113.72844422 215.82881089 -111.58507586 216.24687583 -109.19140625 216.578125 C-107 217 -107 217 -104 219 C-103.99945523 218.17577986 -103.99891047 217.35155972 -103.99834919 216.5023632 C-103.98338146 196.44662435 -103.94093495 176.39110779 -103.86790943 156.33549309 C-103.83325729 146.63672242 -103.80790361 136.93809391 -103.80444336 127.23925781 C-103.80140378 118.78566714 -103.78091413 110.33232963 -103.73947543 101.87883675 C-103.71814314 97.40276292 -103.70554595 92.92704904 -103.71384621 88.45092392 C-103.72138498 84.23675442 -103.70557124 80.02331432 -103.67193985 75.80927849 C-103.6637044 74.26376558 -103.6639593 72.71818017 -103.67340279 71.17267418 C-103.74573707 58.03233182 -103.74573707 58.03233182 -100.57373047 54.11978149 C-96.61294867 50.85759376 -96.61294867 50.85759376 -94.41796875 49.71875 C-93.41056641 49.17988159 -93.41056641 49.17988159 -92.3828125 48.63012695 C-91.65835938 48.25718506 -90.93390625 47.88424316 -90.1875 47.5 C-88.56497279 46.63157919 -86.94395572 45.76033274 -85.32421875 44.88671875 C-84.46103027 44.42313965 -83.5978418 43.95956055 -82.70849609 43.48193359 C-77.91432746 40.8588397 -73.21132199 38.08080197 -68.5 35.3125 C-58.89719724 29.68475724 -49.27128299 24.09935526 -39.61181641 18.56933594 C-34.27712492 15.50645529 -28.98361655 12.39707626 -23.75 9.1640625 C-22.75887207 8.55763916 -21.76774414 7.95121582 -20.74658203 7.32641602 C-18.88934874 6.18558023 -17.04064857 5.03068291 -15.20263672 3.85913086 C-9.81950221 0.56746965 -6.32936091 -0.852554 0 0 Z " fill="#1F67FE" transform="translate(320,37)"/>
<path d="M0 0 C-0.00967804 1.28435944 -0.01935608 2.56871887 -0.02932739 3.89199829 C-0.11431186 16.0433592 -0.14613206 28.193874 -0.12697029 40.34552956 C-0.11880039 46.59181147 -0.12883888 52.83692013 -0.18164062 59.08300781 C-0.2319865 65.12009232 -0.23299918 71.15541851 -0.20095444 77.19260788 C-0.1972263 79.48651312 -0.21076019 81.78051858 -0.24249649 84.07420731 C-0.43019868 98.63561091 0.59175648 108.2935871 11 119 C15.10610937 117.10478754 18.06407397 114.33783074 21.3125 111.25 C22.47758746 110.16767036 23.64294934 109.08563604 24.80859375 108.00390625 C26.62324639 106.3074514 28.40313492 104.59686508 30.16015625 102.83984375 C31.875 101.1875 31.875 101.1875 35 99 C38.9375 99.125 38.9375 99.125 42 100 C42.13277344 100.75925781 42.26554688 101.51851563 42.40234375 102.30078125 C42.66724609 103.79158203 42.66724609 103.79158203 42.9375 105.3125 C43.11152344 106.29863281 43.28554688 107.28476563 43.46484375 108.30078125 C43.95746847 111.08189213 43.95746847 111.08189213 45 114 C49.55643866 116.0003877 54.1001072 116.49311454 59 117 C58.95875 118.051875 58.9175 119.10375 58.875 120.1875 C58.99147875 123.74010173 59.47208068 125.84866641 61 129 C54.13583057 133.30692984 48.03743215 133.91431106 40 133 C37.6875 132.30859375 37.6875 132.30859375 36 131 C35.171875 128.57421875 35.171875 128.57421875 34.75 125.6875 C34.60046875 124.74261719 34.4509375 123.79773438 34.296875 122.82421875 C34.01987393 120.18906381 33.94214318 117.64694966 34 115 C33.50113281 115.38929688 33.00226563 115.77859375 32.48828125 116.1796875 C30.94497182 117.38219431 29.39768095 118.57959914 27.84765625 119.7734375 C25.76722169 121.40011473 23.72036693 123.04714883 21.68359375 124.7265625 C20.5391448 125.65114355 19.39461405 126.57562335 18.25 127.5 C17.70770752 127.95745605 17.16541504 128.41491211 16.60668945 128.88623047 C14.19614247 130.81037738 12.66402216 132.00993028 9.51855469 131.96289062 C5.99051991 130.61405685 5.33627275 128.77338906 3.6875 125.4375 C3.17574219 124.42558594 2.66398437 123.41367188 2.13671875 122.37109375 C1.76160156 121.58863281 1.38648438 120.80617188 1 120 C1.01683838 121.18029785 1.03367676 122.3605957 1.05102539 123.57666016 C1.10180273 127.9717179 1.09326012 132.36503588 1.06713867 136.76025391 C1.06406355 138.6593846 1.07690412 140.55861234 1.10620117 142.45751953 C1.33103253 158.06490359 1.33103253 158.06490359 -1.61547852 162.34863281 C-3.99895256 163.97450942 -6.31363377 164.9504056 -9 166 C-11.06735518 167.17364328 -13.11991573 168.37358008 -15.16015625 169.59375 C-16.86322455 170.56040307 -18.56635343 171.52695758 -20.27185059 172.48931885 C-23.37943685 174.24330756 -26.48034649 176.00904066 -29.58203125 177.7734375 C-30.2095932 178.13009491 -30.83715515 178.48675232 -31.48373413 178.85421753 C-37.42985345 182.23672433 -43.34448186 185.67211936 -49.25 189.125 C-50.20737061 189.68396973 -51.16474121 190.24293945 -52.15112305 190.81884766 C-57.36001123 193.86280401 -62.56119766 196.91951452 -67.7578125 199.984375 C-69.41828613 200.96059814 -69.41828613 200.96059814 -71.11230469 201.95654297 C-73.24794238 203.21229282 -75.38149458 204.47159786 -77.51269531 205.73486328 C-78.9411377 206.57380127 -78.9411377 206.57380127 -80.3984375 207.4296875 C-81.24067871 207.92710449 -82.08291992 208.42452148 -82.95068359 208.93701172 C-85 210 -85 210 -87 210 C-87.2102486 189.24243925 -87.36895235 168.48505405 -87.46630955 147.72664452 C-87.51271617 138.0880715 -87.57598206 128.45016007 -87.67895508 118.81201172 C-87.76866497 110.41127128 -87.8267247 102.01100992 -87.84679645 93.6098038 C-87.8585299 89.16117522 -87.8860964 84.71391719 -87.95157051 80.265728 C-88.01271657 76.07760132 -88.03149497 71.89140769 -88.01796913 67.70287704 C-88.02044288 66.16691067 -88.03831878 64.63087894 -88.07284927 63.09529877 C-88.32105225 51.48711423 -88.32105225 51.48711423 -85.03412533 47.78700638 C-82.74065866 46.23235744 -80.54300451 45.08577185 -78 44 C-77.000896 43.39414063 -76.00179199 42.78828125 -74.97241211 42.1640625 C-73.63835327 41.40222656 -73.63835327 41.40222656 -72.27734375 40.625 C-70.7469043 39.74714844 -70.7469043 39.74714844 -69.18554688 38.8515625 C-68.11369141 38.24054688 -67.04183594 37.62953125 -65.9375 37 C-63.6129802 35.66718751 -61.28876911 34.33384757 -58.96484375 33 C-58.37947845 32.66444092 -57.79411316 32.32888184 -57.19100952 31.9831543 C-51.44265017 28.68614446 -45.72007572 25.34574974 -40 22 C-37.05343341 20.28028333 -34.10637645 18.5614099 -31.15917969 16.84277344 C-28.92497828 15.53954683 -26.69127787 14.23548411 -24.45800781 12.93066406 C-21.43585819 11.16556737 -18.41094389 9.40528832 -15.38427734 7.64794922 C-13.65419072 6.64197323 -11.92668063 5.63157031 -10.19921875 4.62109375 C-9.15636719 4.01652344 -8.11351562 3.41195312 -7.0390625 2.7890625 C-6.11303223 2.24975098 -5.18700195 1.71043945 -4.23291016 1.15478516 C-2 0 -2 0 0 0 Z " fill="#FEFEFE" transform="translate(340,83)"/>
<path d="M0 0 C2.2421875 0.953125 2.2421875 0.953125 3.875 2.25 C4.42929687 2.66765625 4.98359375 3.0853125 5.5546875 3.515625 C8.34863382 6.38508338 9.25206383 9.17391491 9.22705078 13.12597656 C9.22682419 14.32676849 9.22682419 14.32676849 9.22659302 15.55181885 C9.21627045 16.40612488 9.20594788 17.26043091 9.1953125 18.140625 C9.1924826 19.02280701 9.18965271 19.90498901 9.18673706 20.81390381 C9.17555961 23.62607499 9.15045951 26.4379254 9.125 29.25 C9.11496705 31.15884956 9.10584175 33.06770412 9.09765625 34.9765625 C9.07562824 39.65116489 9.04111511 44.32552809 9 49 C7.68 49.66 6.36 50.32 5 51 C4.67 47.37 4.34 43.74 4 40 C0.9135218 41.23459128 -1.73925482 42.31214541 -4.58203125 43.890625 C-5.25363281 44.26276123 -5.92523438 44.63489746 -6.6171875 45.01831055 C-7.34164062 45.42476807 -8.06609375 45.83122559 -8.8125 46.25 C-9.98232422 46.90319214 -9.98232422 46.90319214 -11.17578125 47.56958008 C-19.71933041 52.36448018 -28.16816792 57.3211981 -36.62109375 62.2734375 C-44.27486347 66.75386668 -51.96283412 71.17473391 -59.65625 75.58666992 C-61.63012746 76.72174473 -63.59502826 77.87262521 -65.54901791 79.04160404 C-67.98196942 80.42227838 -70.30310688 81.61879937 -72.83422947 82.76821804 C-80.66084341 86.49037023 -80.66084341 86.49037023 -85.37495232 93.40394783 C-85.89104205 97.63642433 -85.92634349 101.6419369 -85.79467773 105.89282227 C-85.80031685 107.49022421 -85.81256115 109.08761432 -85.83087158 110.68492126 C-85.86178181 115.00046002 -85.8008545 119.310299 -85.72283816 123.62505841 C-85.65698232 128.14139529 -85.67636874 132.65736676 -85.6865387 137.17405701 C-85.6929112 145.71709749 -85.62312855 154.25773358 -85.5256682 162.80015177 C-85.41839984 172.52927506 -85.39650144 182.2580123 -85.3816117 191.98764718 C-85.34909252 211.99282531 -85.20686416 231.99593038 -85 252 C-80.05 249.69 -75.1 247.38 -70 245 C-69.67 248.96 -69.34 252.92 -69 257 C-66.04841973 258.35938968 -66.04841973 258.35938968 -63.50170898 256.8828125 C-62.01392944 256.01269531 -62.01392944 256.01269531 -60.49609375 255.125 C-59.3764624 254.47724609 -58.25683105 253.82949219 -57.10327148 253.16210938 C-55.88124376 252.44158243 -54.65932277 251.72087443 -53.4375 251 C-52.171218 250.26270288 -50.90436392 249.52638748 -49.63696289 248.79101562 C-47.0259345 247.27439661 -44.41808313 245.75251654 -41.8125 244.2265625 C-38.32282506 242.18498397 -34.82023301 240.16667731 -31.3125 238.15625 C-19.91120901 231.62126846 -8.56072552 225.00271724 2.75 218.3125 C3.32662384 217.97202637 3.90324768 217.63155273 4.49734497 217.28076172 C14.44681013 212.41277111 14.44681013 212.41277111 22 205 C22.03749115 202.90882679 22.07215186 200.81753138 22.08691406 198.72607422 C22.24705909 188.31459412 22.24705909 188.31459412 24.4453125 184.4765625 C27.23824984 181.99798174 29.22923735 181.09839523 32.9375 180.625 C33.618125 180.74875 34.29875 180.8725 35 181 C36.30595359 185.35055625 35.67451447 187.44604225 33.625 191.4375 C31.7269788 195.32818058 30.35452562 198.62751738 30 203 C31.98 203 33.96 203 36 203 C35.88066529 208.72806612 34.28035123 211.77179203 30.375 215.9375 C25.10723959 220.51213404 18.6319459 224.78935137 12 227 C11.34 226.01 10.68 225.02 10 224 C9.443125 224.9075 8.88625 225.815 8.3125 226.75 C4.81435208 231.666316 0.50496953 234.42601876 -4.69921875 237.36328125 C-5.81248535 237.99500244 -6.92575195 238.62672363 -8.07275391 239.27758789 C-8.66098938 239.60872589 -9.24922485 239.93986389 -9.85528564 240.28103638 C-12.36686315 241.69495436 -14.87292516 243.1185265 -17.37945557 244.54136658 C-18.67616536 245.27727543 -19.97316501 246.01267376 -21.27044678 246.74757385 C-27.57436274 250.31957858 -33.85209455 253.93633733 -40.125 257.5625 C-41.17429687 258.16852051 -42.22359375 258.77454102 -43.3046875 259.39892578 C-45.43615612 260.62999892 -47.56750336 261.86128224 -49.69873047 263.09277344 C-55.52702546 266.45992626 -61.3573174 269.82361698 -67.1875 273.1875 C-68.26854004 273.81148682 -69.34958008 274.43547363 -70.46337891 275.07836914 C-72.44760801 276.2233829 -74.43288102 277.36659049 -76.41943359 278.50756836 C-78.00249228 279.42310646 -79.57983374 280.34873102 -81.14697266 281.29125977 C-85.66465441 283.98857095 -88.82803657 285.18650926 -94 284 C-98.44975461 281.79257271 -100.87287001 279.45977979 -103 275 C-104.29292969 274.97421875 -105.58585937 274.9484375 -106.91796875 274.921875 C-120.37826713 274.53414579 -133.82729853 274.04228222 -144 264 C-146.19528439 261.25589451 -146.89176799 259.55318584 -147.5625 256.125 C-146.84471948 252.13733046 -145.04393164 250.56306611 -142.3515625 247.66015625 C-140.79870451 245.99832491 -140.79870451 245.99832491 -140.375 243.375 C-141.47815646 239.18300544 -144.31296164 236.68703836 -147.3125 233.6875 C-158.97093194 222.02906806 -164.97267086 210.37943622 -165.375 193.8125 C-165.40126465 193.13477539 -165.4275293 192.45705078 -165.45458984 191.75878906 C-165.47072307 186.70288473 -164.14622329 183.89476713 -161 180 C-158.78663035 178.40914057 -157.70585936 177.97794189 -155 178.0625 C-149.61232099 180.58797454 -147.48062123 186.80526331 -145.05078125 191.890625 C-144.1726324 193.93324557 -144.1726324 193.93324557 -143 195 C-139.50240937 194.92421255 -136.01339313 194.82371211 -132.52148438 194.609375 C-128.46389695 194.49676199 -125.79901023 194.69839616 -122.52734375 197.23828125 C-120.10464018 199.88565594 -119.21817319 200.98164261 -118.75 204.4375 C-118.61207031 205.2109375 -118.47414062 205.984375 -118.33203125 206.78125 C-118.22246094 207.5134375 -118.11289063 208.245625 -118 209 C-117.64244802 212.41445587 -117.64244802 212.41445587 -116 215 C-113.72844422 215.82881089 -111.58507586 216.24687583 -109.19140625 216.578125 C-107 217 -107 217 -104 219 C-103.99945523 218.17577986 -103.99891047 217.35155972 -103.99834919 216.5023632 C-103.98338146 196.44662435 -103.94093495 176.39110779 -103.86790943 156.33549309 C-103.83325729 146.63672242 -103.80790361 136.93809391 -103.80444336 127.23925781 C-103.80140378 118.78566714 -103.78091413 110.33232963 -103.73947543 101.87883675 C-103.71814314 97.40276292 -103.70554595 92.92704904 -103.71384621 88.45092392 C-103.72138498 84.23675442 -103.70557124 80.02331432 -103.67193985 75.80927849 C-103.6637044 74.26376558 -103.6639593 72.71818017 -103.67340279 71.17267418 C-103.74573707 58.03233182 -103.74573707 58.03233182 -100.57373047 54.11978149 C-96.61294867 50.85759376 -96.61294867 50.85759376 -94.41796875 49.71875 C-93.41056641 49.17988159 -93.41056641 49.17988159 -92.3828125 48.63012695 C-91.65835938 48.25718506 -90.93390625 47.88424316 -90.1875 47.5 C-88.56497279 46.63157919 -86.94395572 45.76033274 -85.32421875 44.88671875 C-84.46103027 44.42313965 -83.5978418 43.95956055 -82.70849609 43.48193359 C-77.91432746 40.8588397 -73.21132199 38.08080197 -68.5 35.3125 C-58.89719724 29.68475724 -49.27128299 24.09935526 -39.61181641 18.56933594 C-34.27712492 15.50645529 -28.98361655 12.39707626 -23.75 9.1640625 C-22.75887207 8.55763916 -21.76774414 7.95121582 -20.74658203 7.32641602 C-18.88934874 6.18558023 -17.04064857 5.03068291 -15.20263672 3.85913086 C-9.81950221 0.56746965 -6.32936091 -0.852554 0 0 Z " fill="#26333A" transform="translate(320,37)"/>
<path d="M0 0 C0 13.2 0 26.4 0 40 C-1.98 40.99 -1.98 40.99 -4 42 C-4.33 38.37 -4.66 34.74 -5 31 C-8.0864782 32.23459128 -10.73925482 33.31214541 -13.58203125 34.890625 C-14.25363281 35.26276123 -14.92523438 35.63489746 -15.6171875 36.01831055 C-16.34164062 36.42476807 -17.06609375 36.83122559 -17.8125 37.25 C-18.59238281 37.68546143 -19.37226563 38.12092285 -20.17578125 38.56958008 C-28.71933041 43.36448018 -37.16816792 48.3211981 -45.62109375 53.2734375 C-53.27486347 57.75386668 -60.96283412 62.17473391 -68.65625 66.58666992 C-70.63012746 67.72174473 -72.59502826 68.87262521 -74.54901791 70.04160404 C-76.98196942 71.42227838 -79.30310688 72.61879937 -81.83422947 73.76821804 C-89.66084341 77.49037023 -89.66084341 77.49037023 -94.37495232 84.40394783 C-94.89104205 88.63642433 -94.92634349 92.6419369 -94.79467773 96.89282227 C-94.80031685 98.49022421 -94.81256115 100.08761432 -94.83087158 101.68492126 C-94.86178181 106.00046002 -94.8008545 110.310299 -94.72283816 114.62505841 C-94.65698232 119.14139529 -94.67636874 123.65736676 -94.6865387 128.17405701 C-94.6929112 136.71709749 -94.62312855 145.25773358 -94.5256682 153.80015177 C-94.41839984 163.52927506 -94.39650144 173.2580123 -94.3816117 182.98764718 C-94.34909252 202.99282531 -94.20686416 222.99593038 -94 243 C-89.05 240.69 -84.1 238.38 -79 236 C-78.67 239.96 -78.34 243.92 -78 248 C-75.04841973 249.35938968 -75.04841973 249.35938968 -72.50170898 247.8828125 C-71.50985596 247.30273438 -70.51800293 246.72265625 -69.49609375 246.125 C-68.3764624 245.47724609 -67.25683105 244.82949219 -66.10327148 244.16210938 C-64.88124376 243.44158243 -63.65932277 242.72087443 -62.4375 242 C-61.171218 241.26270288 -59.90436392 240.52638748 -58.63696289 239.79101562 C-56.0259345 238.27439661 -53.41808313 236.75251654 -50.8125 235.2265625 C-47.32282506 233.18498397 -43.82023301 231.16667731 -40.3125 229.15625 C-28.91120901 222.62126846 -17.56072552 216.00271724 -6.25 209.3125 C-5.67337616 208.97202637 -5.09675232 208.63155273 -4.50265503 208.28076172 C5.44681013 203.41277111 5.44681013 203.41277111 13 196 C13.03749115 193.90882679 13.07215186 191.81753138 13.08691406 189.72607422 C13.24705909 179.31459412 13.24705909 179.31459412 15.4453125 175.4765625 C18.23824984 172.99798174 20.22923735 172.09839523 23.9375 171.625 C24.618125 171.74875 25.29875 171.8725 26 172 C27.30595359 176.35055625 26.67451447 178.44604225 24.625 182.4375 C22.7269788 186.32818058 21.35452562 189.62751738 21 194 C22.98 194 24.96 194 27 194 C26.88066529 199.72806612 25.28035123 202.77179203 21.375 206.9375 C16.10723959 211.51213404 9.6319459 215.78935137 3 218 C2.34 217.01 1.68 216.02 1 215 C0.443125 215.9075 -0.11375 216.815 -0.6875 217.75 C-4.18564792 222.666316 -8.49503047 225.42601876 -13.69921875 228.36328125 C-14.81248535 228.99500244 -15.92575195 229.62672363 -17.07275391 230.27758789 C-17.66098938 230.60872589 -18.24922485 230.93986389 -18.85528564 231.28103638 C-21.36686315 232.69495436 -23.87292516 234.1185265 -26.37945557 235.54136658 C-27.67616536 236.27727543 -28.97316501 237.01267376 -30.27044678 237.74757385 C-36.57436274 241.31957858 -42.85209455 244.93633733 -49.125 248.5625 C-50.69894531 249.47153076 -50.69894531 249.47153076 -52.3046875 250.39892578 C-54.43615612 251.62999892 -56.56750336 252.86128224 -58.69873047 254.09277344 C-64.52702546 257.45992626 -70.3573174 260.82361698 -76.1875 264.1875 C-77.26854004 264.81148682 -78.34958008 265.43547363 -79.46337891 266.07836914 C-81.44631411 267.22263625 -83.43028399 268.36511318 -85.41552734 269.50537109 C-87.01153248 270.42835838 -88.60175247 271.36153622 -90.18212891 272.31103516 C-94.68964904 275 -94.68964904 275 -98 275 C-99.63088236 271.73823528 -99.14796242 268.13974145 -99.14717102 264.55497742 C-99.15268605 263.22850959 -99.15268605 263.22850959 -99.1583125 261.87524444 C-99.16937835 258.89428153 -99.17319807 255.91335345 -99.17700195 252.93237305 C-99.18326436 250.80228565 -99.18991095 248.67219935 -99.19691467 246.54211426 C-99.21434388 240.74249896 -99.22488142 234.94289192 -99.2331202 229.1432569 C-99.23826571 225.52265068 -99.24434161 221.90204704 -99.25063133 218.28144264 C-99.26968776 206.9614647 -99.28391859 195.6414933 -99.2922433 184.32150239 C-99.30202191 171.2392888 -99.3283559 158.15724414 -99.36874419 145.07509011 C-99.39886538 134.97314294 -99.41370833 124.8712443 -99.41702431 114.76925308 C-99.41937915 108.73110426 -99.428396 102.69313581 -99.45348549 96.65503502 C-99.47670159 90.97595668 -99.48102545 85.2971783 -99.47072411 79.61806488 C-99.47022708 77.53189155 -99.4765964 75.44570378 -99.49028015 73.35957527 C-99.50789915 70.51467849 -99.50094221 67.67086989 -99.48774719 64.82597351 C-99.49871644 63.99756618 -99.50968568 63.16915884 -99.52098733 62.31564826 C-99.4765928 58.35977906 -99.29378121 56.45843634 -97.10605145 53.0445528 C-94.97000265 50.9708786 -93.03305239 49.57947126 -90.421875 48.16015625 C-89.52106201 47.66209473 -88.62024902 47.1640332 -87.69213867 46.65087891 C-86.72123291 46.12671387 -85.75032715 45.60254883 -84.75 45.0625 C-82.65667007 43.90654372 -80.56424939 42.74893962 -78.47265625 41.58984375 C-77.39773926 40.99671387 -76.32282227 40.40358398 -75.21533203 39.79248047 C-70.16329615 36.97607595 -65.17523439 34.05333089 -60.1875 31.125 C-50.57174245 25.49312756 -40.9331986 19.90239548 -31.265625 14.35986328 C-26.39336016 11.56142284 -21.54262714 8.74279796 -16.7578125 5.796875 C-15.97591553 5.31959961 -15.19401855 4.84232422 -14.38842773 4.35058594 C-12.97130532 3.48097738 -11.5612689 2.59965859 -10.16040039 1.70410156 C-5.93027607 -0.88186541 -5.18370853 -1.03674171 0 0 Z " fill="#475C67" transform="translate(329,46)"/>
<path d="M0 0 C4.13148456 2.50349152 7.19761316 5.46499908 9.4375 9.75 C9.92299015 12.55505421 10.17402812 15.22838633 10.375 18.0625 C10.79070709 23.63297504 12.28215527 28.51039227 14.0234375 33.796875 C15.19705656 37.6463455 15.85791271 41.4703995 16.4921875 45.4375 C17.00144716 48.00730258 17.76882343 50.30019582 18.6875 52.75 C20.12127938 56.88222569 20.27042173 59.71232665 19 64 C18.17544737 65.06062365 17.32127933 66.09861414 16.4453125 67.1171875 C13.23136131 71.50142357 13.53887369 75.24600153 13.875 80.5 C14.14623041 88.32745003 13.52634091 95.14536585 11.65625 102.73828125 C10.82138041 106.88778188 10.02193286 111.06950972 11.99633789 114.96655273 C15.52995565 122.12576029 11.95006625 132.73942832 10.5625 140.125 C8.91437383 149.17383566 7.44787634 157.93977731 7.3359375 167.15234375 C6.93074401 170.58706528 5.68653256 173.00618163 4 176 C-2.83981276 175.48378772 -8.63876684 173.51409031 -15 171 C-15 169.68 -15 168.36 -15 167 C-11.37 167 -7.74 167 -4 167 C-6.6434417 159.75830918 -9.52715785 152.7046728 -12.76953125 145.71484375 C-13.43692916 144.26240664 -14.10424595 142.80993226 -14.77148438 141.35742188 C-15.79207348 139.1386538 -16.81892863 136.92395294 -17.8659668 134.7175293 C-22.16060526 125.63815245 -25.26357418 118.27918102 -24 108 C-23.89042969 106.89269531 -23.78085937 105.78539062 -23.66796875 104.64453125 C-23.50941406 103.70996094 -23.35085938 102.77539062 -23.1875 101.8125 C-21.91688911 93.74412088 -20.98515039 85.64439778 -20.0534668 77.53051758 C-19.93140869 76.48661865 -19.80935059 75.44271973 -19.68359375 74.3671875 C-19.52201782 72.96122314 -19.52201782 72.96122314 -19.35717773 71.52685547 C-19.04097941 69.28990905 -18.59783155 67.1761962 -18 65 C-17.47148437 65.15984375 -16.94296875 65.3196875 -16.3984375 65.484375 C-10.1338952 66.83114957 -3.24451199 66.91302183 2.6875 64.5 C3.450625 64.005 4.21375 63.51 5 63 C5.66 63 6.32 63 7 63 C6.484375 62.319375 5.96875 61.63875 5.4375 60.9375 C3.60792912 57.19881168 4.13821128 54.99556587 5 51 C3.205625 51.0928125 3.205625 51.0928125 1.375 51.1875 C-2.79235613 51.16537245 -5.51418769 50.43196208 -9 48 C-11.86145224 43.41087848 -12.33919771 39.98498583 -12.1875 34.625 C-12.16042969 33.37976563 -12.13335937 32.13453125 -12.10546875 30.8515625 C-12.07066406 29.91054687 -12.03585937 28.96953125 -12 28 C-13.65 27.67 -15.3 27.34 -17 27 C-17 25.02 -17 23.04 -17 21 C-17.66 21 -18.32 21 -19 21 C-19.11850316 8.64181312 -19.11850316 8.64181312 -16.48046875 4.76953125 C-11.70493075 0.69775675 -6.31997642 -1.36951532 0 0 Z " fill="#1FB099" transform="translate(394,149)"/>
<path d="M0 0 C3.69694467 3.69694467 5.72124849 8.22775226 7.94921875 12.890625 C8.8273676 14.93324557 8.8273676 14.93324557 10 16 C13.49759063 15.92421255 16.98660687 15.82371211 20.47851562 15.609375 C24.53610305 15.49676199 27.20098977 15.69839616 30.47265625 18.23828125 C32.89535982 20.88565594 33.78182681 21.98164261 34.25 25.4375 C34.38792969 26.2109375 34.52585938 26.984375 34.66796875 27.78125 C34.77753906 28.5134375 34.88710937 29.245625 35 30 C35.35755198 33.41445587 35.35755198 33.41445587 37 36 C39.24707814 36.7549123 41.35586332 37.12288792 43.7109375 37.3828125 C46.8022942 38.21631823 47.97786888 39.53964991 50 42 C50.48101807 44.49310303 50.48101807 44.49310303 50.45410156 47.31933594 C50.45379944 48.38013367 50.45349731 49.4409314 50.45318604 50.53387451 C50.43254089 51.67253967 50.41189575 52.81120483 50.390625 53.984375 C50.38496521 55.15510559 50.37930542 56.32583618 50.37347412 57.53204346 C50.35108125 61.271778 50.3008768 65.01055497 50.25 68.75 C50.22993889 71.28514242 50.21168744 73.82029985 50.1953125 76.35546875 C50.15120678 82.57063929 50.08426454 88.78525124 50 95 C46.81776058 95.04768562 43.6356147 95.07623396 40.453125 95.1015625 C39.11338623 95.12198608 39.11338623 95.12198608 37.74658203 95.14282227 C26.88334222 95.20754368 16.9717819 92.86957956 9 85 C6.80471561 82.25589451 6.10823201 80.55318584 5.4375 77.125 C6.15528052 73.13733046 7.95606836 71.56306611 10.6484375 68.66015625 C12.20129549 66.99832491 12.20129549 66.99832491 12.625 64.375 C11.52184354 60.18300544 8.68703836 57.68703836 5.6875 54.6875 C-5.97093194 43.02906806 -11.97267086 31.37943622 -12.375 14.8125 C-12.41439697 13.79591309 -12.41439697 13.79591309 -12.45458984 12.75878906 C-12.47072307 7.70288473 -11.14622329 4.89476713 -8 1 C-5.10984651 -1.07729782 -3.26442871 -1.53020096 0 0 Z " fill="#FCBF0D" transform="translate(167,216)"/>
<path d="M0 0 C0.81510694 4.57017225 1.01227406 8.44964101 0 13 C-2.45507812 15.16552734 -2.45507812 15.16552734 -5.71875 16.9609375 C-6.3020256 17.29153168 -6.88530121 17.62212585 -7.48625183 17.96273804 C-8.70883811 18.65319007 -9.93732967 19.33328022 -11.17123413 20.0032959 C-13.99635699 21.54302911 -16.768056 23.1742732 -19.55078125 24.7890625 C-21.80368325 26.06947694 -24.05761899 27.34807393 -26.3125 28.625 C-28.76133373 30.01792336 -31.20886179 31.41313248 -33.65625 32.80859375 C-34.26793533 33.15720963 -34.87962067 33.5058255 -35.50984192 33.86500549 C-41.79197946 37.44741579 -48.05798058 41.05703954 -54.3125 44.6875 C-55.28936768 45.25098145 -56.26623535 45.81446289 -57.27270508 46.39501953 C-66.30886926 50.98627058 -66.30886926 50.98627058 -73 58 C-73.08020262 59.93586391 -73.09384633 61.87460213 -73.07746887 63.8120575 C-73.06991577 65.0499855 -73.06236267 66.28791351 -73.05458069 67.56335449 C-73.04492877 68.56939728 -73.04492877 68.56939728 -73.03508186 69.59576416 C-73.01448092 71.74484827 -72.99969148 73.89390344 -72.98648071 76.04304504 C-72.97219729 78.35785205 -72.95753193 80.67265032 -72.94112074 82.98744333 C-72.90080584 88.73161666 -72.88003084 94.47562064 -72.8712616 100.21992493 C-72.86997798 101.05298383 -72.86869437 101.88604273 -72.86737186 102.74434584 C-72.86249096 106.18224965 -72.85831494 109.62015385 -72.85458529 113.0580591 C-72.84328407 122.82227992 -72.81251105 132.58552456 -72.72241211 142.34936523 C-72.65099891 150.10180137 -72.62194104 157.85308751 -72.64257544 165.60584384 C-72.65191135 169.70890076 -72.63990453 173.80939118 -72.57660866 177.91202354 C-72.51750838 181.77508633 -72.51476115 185.63414918 -72.55459976 189.49741936 C-72.55930769 190.91200504 -72.54361198 192.32683404 -72.50561714 193.74091721 C-72.39577341 198.08644126 -72.48857308 201.90275998 -74 206 C-78.24825289 209.89144663 -83.11974903 213 -89 213 C-89.21024409 191.98166883 -89.36895018 170.96351102 -89.46630955 149.94434166 C-89.51271709 140.18470485 -89.57598486 130.42572136 -89.67895508 120.66650391 C-89.768662 112.1602881 -89.82672402 103.6545454 -89.84679645 95.14786971 C-89.85853037 90.64335731 -89.88610016 86.14019836 -89.95157051 81.63611984 C-90.0127117 77.39546981 -90.03149584 73.15672887 -90.01796913 68.91567993 C-90.02044309 67.3603642 -90.03832163 65.80498399 -90.07284927 64.25004959 C-90.32111541 52.49170306 -90.32111541 52.49170306 -87.02444363 48.76935196 C-84.73290824 47.21583162 -82.54610547 46.07217618 -80 45 C-79.0917749 44.45472656 -78.1835498 43.90945312 -77.24780273 43.34765625 C-76.10226929 42.71150391 -76.10226929 42.71150391 -74.93359375 42.0625 C-74.04889404 41.56766113 -73.16419434 41.07282227 -72.25268555 40.56298828 C-71.32367432 40.04720215 -70.39466309 39.53141602 -69.4375 39 C-61.31054447 34.44743337 -53.22563326 29.83266894 -45.1875 25.125 C-35.30302187 19.33710891 -25.39132559 13.5985501 -15.46362305 7.88525391 C-14.43019775 7.29019043 -13.39677246 6.69512695 -12.33203125 6.08203125 C-11.42171143 5.55843018 -10.5113916 5.0348291 -9.57348633 4.49536133 C-7.79543477 3.46219884 -6.0356035 2.39726305 -4.29174805 1.30737305 C-2 0 -2 0 0 0 Z " fill="#FDFDFE" transform="translate(324,76)"/>
<path d="M0 0 C1.60540659 0.78914921 3.20928016 1.58141765 4.8125 2.375 C5.70582031 2.81585938 6.59914062 3.25671875 7.51953125 3.7109375 C10 5 10 5 13 7 C12.34 8.98 11.68 10.96 11 13 C12.155 13.598125 13.31 14.19625 14.5 14.8125 C17.04050743 16.62196345 17.88047641 17.56196574 18.7109375 20.60546875 C19.11524869 27.73867339 19.11524869 27.73867339 16.44921875 30.75390625 C14.5625 32.0625 14.5625 32.0625 12.62890625 33.09765625 C10.81279541 33.90299882 10.81279541 33.90299882 10 36 C9.56947203 40.9510716 9.83966637 41.78622182 13 46 C11.35 48.97 9.7 51.94 8 55 C6.7625 54.9175 5.525 54.835 4.25 54.75 C1.34225222 54.78087874 0.1529013 54.91374798 -2.4375 56.375 C-4.16839307 59.28290036 -4.18525566 60.68185923 -4.3125 64 C-4.58790113 68.54747727 -4.58790113 68.54747727 -6.43359375 70.57421875 C-9.17374525 72.25366644 -11.47738828 73.01215376 -14.6875 72.9375 C-17.15797101 71.9359577 -18.97549983 70.72457422 -21 69 C-22.32 70.65 -23.64 72.3 -25 74 C-29.8274799 72.58707905 -33.7162359 70.57025846 -38 68 C-37.47731534 65.23723823 -36.89130413 62.6739124 -36 60 C-37.1446875 59.566875 -37.1446875 59.566875 -38.3125 59.125 C-41 58 -41 58 -44 56 C-44.83378984 52.58629521 -44.7794085 49.42073729 -44 46 C-42.36644402 44.26434677 -40.75520325 43.26235369 -38.6953125 42.078125 C-36.75157305 41.02341765 -36.75157305 41.02341765 -35.5 38.4375 C-34.96224118 35.81592577 -34.98189489 34.46042069 -36 32 C-36.66 31.34 -37.32 30.68 -38 30 C-37.69890649 25.93523764 -35.03366739 22.41131304 -33 19 C-30.02148438 19.14648438 -30.02148438 19.14648438 -27.04296875 19.29296875 C-24.93242922 19.14500688 -24.93242922 19.14500688 -23.25 17.79296875 C-21.61457931 15.4471622 -21.76512555 13.95885339 -21.8125 11.125 C-21.59711121 7.9995712 -21.4616353 6.51051434 -19.33984375 4.1640625 C-17.24222496 2.74473913 -15.41960591 1.74696167 -13 1 C-10.25 1.5625 -10.25 1.5625 -8 3 C-7.236875 3.37125 -6.47375 3.7425 -5.6875 4.125 C-5.130625 4.41375 -4.57375 4.7025 -4 5 C-2.68 3.35 -1.36 1.7 0 0 Z " fill="#2168FE" transform="translate(145,37)"/>
<path d="M0 0 C4.56454251 0.54339792 7.9728176 1.79463821 12 4 C12 5.32 12 6.64 12 8 C13.98 8.99 15.96 9.98 18 11 C18.49484536 18.42268041 18.49484536 18.42268041 16.125 21.1875 C15.073125 22.0846875 15.073125 22.0846875 14 23 C12.74563813 25.63222962 12.74563813 25.63222962 12 28 C13.32 28.33 14.64 28.66 16 29 C15.51421457 32.12290635 15.0013988 34.99580359 14 38 C10.4375 39.1875 10.4375 39.1875 7 40 C6.93683594 40.66386719 6.87367188 41.32773438 6.80859375 42.01171875 C5.82026995 49.13805352 5.82026995 49.13805352 3.30859375 51.77734375 C1.375 53.125 1.375 53.125 -2 55 C-2.99 54.34 -3.98 53.68 -5 53 C-5.99 53 -6.98 53 -8 53 C-8.66 54.32 -9.32 55.64 -10 57 C-14.21526759 57.33722141 -16.57789269 57.21887045 -20.375 55.25 C-23.18740945 52.83936333 -23.24343717 52.35049251 -24 49 C-24.825 48.566875 -25.65 48.13375 -26.5 47.6875 C-29 46 -29 46 -30.125 42.5625 C-30.08375 41.386875 -30.0425 40.21125 -30 39 C-28.37064759 37.62131719 -26.70250393 36.28725907 -25 35 C-24.58190799 31.83151973 -24.58190799 31.83151973 -25 29 C-25.66 28.67 -26.32 28.34 -27 28 C-26.44271087 24.65626525 -25.64826111 21.96687001 -24 19 C-22.02 19 -20.04 19 -18 19 C-17.93683594 18.26394531 -17.87367188 17.52789062 -17.80859375 16.76953125 C-16.68235531 7.79518919 -16.68235531 7.79518919 -12.75 4.6875 C-9.75146263 2.92735228 -9.1717862 2.96564276 -5.5625 3.6875 C-4.716875 4.120625 -3.87125 4.55375 -3 5 C-2.01 3.35 -1.02 1.7 0 0 Z " fill="#246AFE" transform="translate(175,77)"/>
<path d="M0 0 C3.96389502 2.02803931 6.56784998 3.70354994 8 8 C7.08992188 8.35964844 6.17984375 8.71929687 5.2421875 9.08984375 C-0.35064426 11.49058011 -5.58349552 14.57008776 -10.875 17.5625 C-11.99269775 18.19164307 -13.11039551 18.82078613 -14.26196289 19.46899414 C-21.01537365 23.28119166 -27.73438499 27.14508024 -34.40258789 31.10424805 C-40.83736655 34.92266277 -47.32508176 38.64690011 -53.8125 42.375 C-62.07517641 47.13180577 -70.31540444 51.92237546 -78.5 56.8125 C-79.33635986 57.30991699 -80.17271973 57.80733398 -81.03442383 58.31982422 C-82.17754028 59.0064917 -82.17754028 59.0064917 -83.34375 59.70703125 C-84.00568359 60.1038208 -84.66761719 60.50061035 -85.34960938 60.90942383 C-87.16016491 62.02675907 -87.16016491 62.02675907 -89 64 C-90.60471728 63.04258894 -92.20875329 62.08403595 -93.8125 61.125 C-94.70582031 60.59132812 -95.59914062 60.05765625 -96.51953125 59.5078125 C-98.37294724 58.38116908 -100.19529917 57.20313389 -102 56 C-96.89120505 51.27164723 -91.124072 48.03338329 -85.06872559 44.64324951 C-83.20840886 43.60171437 -81.35226417 42.55307164 -79.49707031 41.50244141 C-77.56956684 40.4109891 -75.64182565 39.31998324 -73.71282959 38.23117065 C-67.36974463 34.65077114 -61.0567125 31.01905954 -54.75 27.375 C-53.16493652 26.45980591 -53.16493652 26.45980591 -51.54785156 25.52612305 C-44.02335181 21.17793012 -36.50845224 16.8133409 -29 12.4375 C-28.03932617 11.87788574 -27.07865234 11.31827148 -26.08886719 10.74169922 C-24.71456543 9.93949951 -24.71456543 9.93949951 -23.3125 9.12109375 C-22.43053955 8.60699951 -21.5485791 8.09290527 -20.63989258 7.56323242 C-18.82905653 6.49093212 -17.02985063 5.39881816 -15.2409668 4.2902832 C-14.36093994 3.745896 -13.48091309 3.20150879 -12.57421875 2.640625 C-11.79393311 2.14981445 -11.01364746 1.65900391 -10.2097168 1.15332031 C-6.42220849 -0.82349874 -4.22208005 -0.7613587 0 0 Z " fill="#364750" transform="translate(320,37)"/>
<path d="M0 0 C3.62966675 0.9465735 5.00874628 2.4644547 7.08203125 5.54296875 C10.01209693 15.06307538 9.48509552 25.10725262 9.61376953 34.97753906 C9.74449666 47.38961615 9.74449666 47.38961615 12.08203125 59.54296875 C13.4089888 64.36826893 12.77423766 68.65492653 12.08203125 73.54296875 C9.70703125 73.66796875 9.70703125 73.66796875 7.08203125 73.54296875 C4.48587862 70.94681612 4.64281882 69.33683326 4.20703125 65.73046875 C3.48491503 60.95074708 2.78911585 57.90251417 -0.91796875 54.54296875 C-3.6197993 53.19205347 -6.03605081 53.20438817 -9.04296875 52.98046875 C-10.13867188 52.89667969 -11.234375 52.81289062 -12.36328125 52.7265625 C-13.62785156 52.63568359 -13.62785156 52.63568359 -14.91796875 52.54296875 C-19.38190689 39.94828613 -20.94390853 22.0524361 -15.23828125 9.68359375 C-11.37746708 3.42404889 -7.80205707 -0.70444468 0 0 Z " fill="#0BC0FE" transform="translate(196.91796875,179.45703125)"/>
<path d="M0 0 C3.21954645 2.53453657 4.70432435 4.11297305 6 8 C7.33123715 19.501016 3.27822609 29.58904596 -3.73046875 38.57421875 C-8.46822767 43.63815729 -13.76008015 47.21890067 -20.8125 47.6875 C-24.34297849 47.44380325 -25.05112498 46.95952606 -28 44.625 C-31.98624209 39.39305725 -31.55050049 34.41216771 -31 28 C-28.31033582 17.37966888 -21.75372567 8.43280049 -13 2 C-8.98449893 -0.30891311 -4.55023957 -0.91924032 0 0 Z " fill="#E7F6FB" transform="translate(309,116)"/>
<path d="M0 0 C4.13148456 2.50349152 7.19761316 5.46499908 9.4375 9.75 C9.92299015 12.55505421 10.17402812 15.22838633 10.375 18.0625 C10.70071989 22.5672675 11.65537739 26.45951036 13.0625 30.75 C15.85796775 39.42417199 15.85796775 39.42417199 15 44 C12.30080655 47.4489694 10.30515146 49.23122295 6 50 C5.67 50.66 5.34 51.32 5 52 C3.41532272 51.71572583 1.8322943 51.42225182 0.25 51.125 C-0.63171875 50.96257812 -1.5134375 50.80015625 -2.421875 50.6328125 C-6.55854364 49.61744838 -8.34755336 48.99992946 -10.73828125 45.3359375 C-12.17901703 41.52668562 -12.30233761 38.6825954 -12.1875 34.625 C-12.14689453 32.75714844 -12.14689453 32.75714844 -12.10546875 30.8515625 C-12.05326172 29.44003906 -12.05326172 29.44003906 -12 28 C-13.65 27.67 -15.3 27.34 -17 27 C-17 25.02 -17 23.04 -17 21 C-17.66 21 -18.32 21 -19 21 C-19.11850316 8.64181312 -19.11850316 8.64181312 -16.48046875 4.76953125 C-11.70493075 0.69775675 -6.31997642 -1.36951532 0 0 Z " fill="#384851" transform="translate(394,149)"/>
<path d="M0 0 C4.55015893 1.51671964 6.50057264 5.16891053 9 9 C9.66 8.01 10.32 7.02 11 6 C11.66 6 12.32 6 13 6 C12.93296875 6.59683594 12.8659375 7.19367188 12.796875 7.80859375 C12.60632484 18.49528189 19.72283592 25.98662907 26 34 C30.10610937 32.10478754 33.06407397 29.33783074 36.3125 26.25 C37.47758746 25.16767036 38.64294934 24.08563604 39.80859375 23.00390625 C41.62324639 21.3074514 43.40313492 19.59686508 45.16015625 17.83984375 C46.875 16.1875 46.875 16.1875 50 14 C53.9375 14.125 53.9375 14.125 57 15 C57.19916016 16.13888672 57.19916016 16.13888672 57.40234375 17.30078125 C57.57894531 18.29464844 57.75554687 19.28851563 57.9375 20.3125 C58.11152344 21.29863281 58.28554688 22.28476563 58.46484375 23.30078125 C58.95746847 26.08189213 58.95746847 26.08189213 60 29 C64.55643866 31.0003877 69.1001072 31.49311454 74 32 C73.95875 33.051875 73.9175 34.10375 73.875 35.1875 C73.99147875 38.74010173 74.47208068 40.84866641 76 44 C69.13583057 48.30692984 63.03743215 48.91431106 55 48 C52.6875 47.30859375 52.6875 47.30859375 51 46 C50.171875 43.57421875 50.171875 43.57421875 49.75 40.6875 C49.60046875 39.74261719 49.4509375 38.79773438 49.296875 37.82421875 C49.01987393 35.18906381 48.94214318 32.64694966 49 30 C48.50113281 30.38929688 48.00226563 30.77859375 47.48828125 31.1796875 C45.94497182 32.38219431 44.39768095 33.57959914 42.84765625 34.7734375 C40.76722169 36.40011473 38.72036693 38.04714883 36.68359375 39.7265625 C35.5391448 40.65114355 34.39461405 41.57562335 33.25 42.5 C32.70770752 42.95745605 32.16541504 43.41491211 31.60668945 43.88623047 C29.19252314 45.8132664 27.66930972 47.0134968 24.51806641 46.94995117 C21.01875408 45.62982084 20.38790923 43.93904045 18.6953125 40.64453125 C18.11136719 39.54689453 17.52742188 38.44925781 16.92578125 37.31835938 C16.33152344 36.16142578 15.73726563 35.00449219 15.125 33.8125 C10.74000545 24.77322644 10.74000545 24.77322644 4.04296875 17.4921875 C1 15 1 15 0.60546875 12.55078125 C0.79753906 11.81214844 0.98960937 11.07351562 1.1875 10.3125 C1.76042713 8.09992744 1.76042713 8.09992744 2 6 C1.34 5.01 0.68 4.02 0 3 C0 2.01 0 1.02 0 0 Z " fill="#FAA7A9" transform="translate(325,168)"/>
<path d="M0 0 C3 0.4375 3 0.4375 4.67578125 2.17578125 C6.19558537 4.77155289 6.31831139 6.08775219 6.1875 9.0625 C6.16429687 9.93390625 6.14109375 10.8053125 6.1171875 11.703125 C6.0390625 13.52604167 5.9609375 15.34895833 5.8828125 17.171875 C5.85960937 18.04328125 5.83640625 18.9146875 5.8125 19.8125 C5.77769531 20.60398437 5.74289063 21.39546875 5.70703125 22.2109375 C6.07445672 25.00337105 7.24765139 26.2817494 9 28.4375 C9.21484375 30.62109375 9.21484375 30.62109375 8.9375 32.875 C8.86402344 33.61621094 8.79054687 34.35742188 8.71484375 35.12109375 C6.5404565 42.16705898 0.28123175 44.9136687 -5.75 48.25 C-6.63816406 48.75208984 -7.52632812 49.25417969 -8.44140625 49.77148438 C-10.62259511 51.00280067 -12.80866111 52.22436919 -15 53.4375 C-17.9765625 50.75292969 -17.9765625 50.75292969 -18.1875 47.9140625 C-18.0946875 46.50253906 -18.0946875 46.50253906 -18 45.0625 C-17.85318723 40.39507722 -18.4494147 38.36965233 -21 34.4375 C-21.53631461 30.97895837 -21.71174176 27.69351487 -19.9375 24.5625 C-17.10769612 22.91938807 -14.16171707 22.21301551 -11 21.4375 C-10.89042969 20.8084375 -10.78085938 20.179375 -10.66796875 19.53125 C-7.24571926 1.05666739 -7.24571926 1.05666739 0 0 Z " fill="#F9BD0B" transform="translate(123,278.5625)"/>
<path d="M0 0 C0.33 0 0.66 0 1 0 C1.495 4.95 1.495 4.95 2 10 C2.90363281 9.48308594 3.80726563 8.96617188 4.73828125 8.43359375 C5.92939067 7.76769793 7.1208134 7.10236234 8.3125 6.4375 C8.90740234 6.09525391 9.50230469 5.75300781 10.11523438 5.40039062 C11.70282559 4.52233738 13.34993931 3.75413732 15 3 C15.99 3.33 16.98 3.66 18 4 C18 39.64 18 75.28 18 112 C17.34 111.67 16.68 111.34 16 111 C16 76.35 16 41.7 16 6 C1.17631129 14.22295048 1.17631129 14.22295048 -13.5 22.6875 C-15.54263032 23.88469219 -17.58561218 25.08128475 -19.62890625 26.27734375 C-20.66805176 26.88562012 -21.70719727 27.49389648 -22.77783203 28.12060547 C-28.31843838 31.352276 -33.87860983 34.5499183 -39.4375 37.75 C-46.99221292 42.10281201 -54.54205648 46.46318012 -62.0625 50.875 C-62.7649585 51.28588867 -63.46741699 51.69677734 -64.19116211 52.12011719 C-67.27219898 53.81977166 -67.27219898 53.81977166 -70 56 C-70.10908916 58.06261506 -70.14691403 60.12900636 -70.15821838 62.19447327 C-70.16315636 62.84869607 -70.16809434 63.50291887 -70.17318195 64.17696661 C-70.18862828 66.38498351 -70.19693673 68.59297119 -70.20532227 70.80102539 C-70.2148952 72.37751018 -70.22490492 73.95399236 -70.23532104 75.5304718 C-70.26243962 79.82364753 -70.28341141 84.11683433 -70.30332303 88.41004872 C-70.32513986 92.89174894 -70.35254953 97.37341477 -70.37937927 101.85508728 C-70.42936454 110.34778415 -70.47428165 118.84050005 -70.51740164 127.33323425 C-70.56672426 136.99935981 -70.62166078 146.66545087 -70.67708123 156.33154309 C-70.7909908 176.22099661 -70.89781019 196.11048304 -71 216 C-71.33 216 -71.66 216 -72 216 C-72.33 212.37 -72.66 208.74 -73 205 C-73.33 205 -73.66 205 -74 205 C-74.09342832 185.78959449 -74.16397182 166.57923505 -74.20724869 147.36864948 C-74.22787671 138.44889546 -74.25600186 129.52928258 -74.30175781 120.60961914 C-74.34161828 112.83551842 -74.36743107 105.06151991 -74.37635398 97.28731984 C-74.3815701 93.17063348 -74.39383464 89.05423954 -74.42292023 84.93764687 C-74.450077 81.0626397 -74.45844458 77.18804533 -74.45243073 73.31295204 C-74.45353086 71.89114132 -74.46148357 70.46931676 -74.4768219 69.04758835 C-74.49674954 67.10513559 -74.48954834 65.16246117 -74.48101807 63.21992493 C-74.48470524 62.133131 -74.48839241 61.04633707 -74.49219131 59.92660999 C-73.87932815 56.28247524 -72.52954991 54.64425812 -70 52 C-67.57177734 50.29345703 -67.57177734 50.29345703 -64.8359375 48.7578125 C-63.80911865 48.17410889 -62.7822998 47.59040527 -61.72436523 46.98901367 C-60.61907471 46.37388916 -59.51378418 45.75876465 -58.375 45.125 C-56.6208809 44.13134783 -54.86677046 43.13767995 -53.11320496 42.14305115 C-51.29188498 41.11163152 -49.468157 40.08457422 -47.64404297 39.05810547 C-40.78735071 35.19352401 -33.97299124 31.25351049 -27.17749023 27.2824707 C-22.37974656 24.48492351 -17.58807704 21.75237258 -12.625 19.2578125 C-4.66099546 15.55296514 -4.66099546 15.55296514 0.25 8.72265625 C0.53624794 5.65622522 0.50508097 3.03048584 0 0 Z " fill="#58A5F1" transform="translate(324,77)"/>
<path d="M0 0 C0 3.3 0 6.6 0 10 C-1.59114583 10.91796875 -3.18229167 11.8359375 -4.7734375 12.75390625 C-5.81338867 13.35388428 -6.85333984 13.9538623 -7.92480469 14.57202148 C-10.25095496 15.91401859 -12.57712362 17.25598377 -14.90332031 18.59790039 C-22.07709137 22.73632052 -29.25007497 26.87610052 -36.42236328 31.01708984 C-39.68183876 32.89816351 -42.94237503 34.77738667 -46.203125 36.65625 C-49.69709652 38.66964826 -53.18740302 40.68896049 -56.671875 42.71875 C-57.9479087 43.45834707 -59.22394954 44.19793184 -60.5 44.9375 C-61.5415625 45.54464844 -62.583125 46.15179688 -63.65625 46.77734375 C-66 48 -66 48 -68 48 C-68.88318007 44.73902744 -68.99936202 42.24920778 -68 39 C-64.87894783 36.08209323 -61.14981302 34.25922434 -57.39306641 32.28466797 C-53.57436537 30.23467767 -49.84596931 28.03168504 -46.10107422 25.85058594 C-42.75761228 23.90556977 -39.40558419 21.97616308 -36.05078125 20.05078125 C-31.2316208 17.28433614 -26.41666862 14.5107356 -21.60546875 11.73046875 C-21.00620071 11.38424973 -20.40693268 11.0380307 -19.789505 10.68132019 C-16.8930593 9.00789885 -13.99682636 7.33411121 -11.10083008 5.65991211 C-9.55045044 4.76477905 -9.55045044 4.76477905 -7.96875 3.8515625 C-6.59879883 3.05999756 -6.59879883 3.05999756 -5.20117188 2.25244141 C-1.24249513 0 -1.24249513 0 0 0 Z " fill="#D1F3FF" transform="translate(330,195)"/>
<path d="M0 0 C0 3.3 0 6.6 0 10 C-1.65 9.34 -3.3 8.68 -5 8 C-4.505 9.98 -4.505 9.98 -4 12 C-10.33498995 16.36855795 -16.83694706 20.26656746 -23.5625 24 C-33.08705382 29.32903818 -42.53282171 34.77936621 -51.92993164 40.33007812 C-57.2024886 43.42950799 -62.49184542 46.34021815 -68 49 C-68.65639337 45.4864941 -68.84073206 42.49401012 -68 39 C-65.02855378 35.92316649 -61.41798148 34.2229 -57.625 32.3125 C-55.41754641 31.1166647 -53.21053016 29.92002182 -51.00390625 28.72265625 C-49.27551514 27.8102417 -49.27551514 27.8102417 -47.51220703 26.87939453 C-41.77995949 23.81204839 -36.17963619 20.52186057 -30.5625 17.25 C-28.39886936 16.00315655 -26.23481656 14.75704534 -24.0703125 13.51171875 C-17.95643479 9.98359397 -11.87013275 6.40972111 -5.80883789 2.79199219 C-1.10593302 0 -1.10593302 0 0 0 Z " fill="#D1F3FE" transform="translate(330,160)"/>
<path d="M0 0 C0.66 1.32 1.32 2.64 2 4 C2.99 3.34 3.98 2.68 5 2 C7.1875 2.375 7.1875 2.375 9 3 C9.495 4.98 9.495 4.98 10 7 C11.65 6.67 13.3 6.34 15 6 C15.8125 7.6875 15.8125 7.6875 16 10 C11.61415583 15.50418581 5.40725721 18.50789967 -0.625 21.9375 C-1.65496094 22.53240234 -2.68492187 23.12730469 -3.74609375 23.74023438 C-6.82158151 25.51009054 -9.91020029 27.25528194 -13 29 C-14.02963867 29.59828613 -15.05927734 30.19657227 -16.12011719 30.81298828 C-17.09883789 31.37099121 -18.07755859 31.92899414 -19.0859375 32.50390625 C-19.96040527 33.00865479 -20.83487305 33.51340332 -21.73583984 34.03344727 C-24 35 -24 35 -27 34 C-26.75 31.625 -26.75 31.625 -26 29 C-25.34 28.71125 -24.68 28.4225 -24 28.125 C-23.34 27.75375 -22.68 27.3825 -22 27 C-21.64820803 24.6693782 -21.31669821 22.33564933 -21 20 C-19.14717224 17.06103182 -18.0437711 15.37691734 -14.75 14.1875 C-14.1725 14.125625 -13.595 14.06375 -13 14 C-12.938125 12.96875 -12.87625 11.9375 -12.8125 10.875 C-11.80509918 6.07047303 -10.38220746 4.46470032 -7 1 C-4.53721199 -0.231394 -2.7204945 -0.07159196 0 0 Z " fill="#1D66FE" transform="translate(400,55)"/>
<path d="M0 0 C2 3 2 3 2 7 C-1.63 7.33 -5.26 7.66 -9 8 C-9 8.66 -9 9.32 -9 10 C-2.63876684 12.51409031 3.16018724 14.48378772 10 15 C12.4021604 10.1956792 12.61122229 5.26896105 13 0 C19.50260359 1.34536626 24.18643294 3.18643294 29 8 C29.5625 10.75 29.5625 10.75 29 14 C25.44667534 18.34181456 21.42134181 20.65545789 16 22 C12.39219643 22.32918452 8.80864628 22.37012959 5.1875 22.375 C4.24068359 22.39949219 3.29386719 22.42398437 2.31835938 22.44921875 C-5.41767221 22.48116382 -11.30194677 20.70589261 -17.5625 16.125 C-19 14 -19 14 -19.625 11.0625 C-18.90387664 7.52899554 -17.66620288 6.20873034 -14.77734375 4.1015625 C-10.01349835 1.14902535 -5.6588814 -0.78961136 0 0 Z " fill="#0052FC" transform="translate(388,309)"/>
<path d="M0 0 C1.30595359 4.35055625 0.67451447 6.44604225 -1.375 10.4375 C-3.2730212 14.32818058 -4.64547438 17.62751738 -5 22 C-3.02 22 -1.04 22 1 22 C0.88066529 27.72806612 -0.71964877 30.77179203 -4.625 34.9375 C-9.89276041 39.51213404 -16.3680541 43.78935137 -23 46 C-25.40053762 41.79905916 -26.6904414 38.85192002 -26 34 C-23.6640625 31.98828125 -23.6640625 31.98828125 -20.625 30.3125 C-16.18289721 27.8675839 -16.18289721 27.8675839 -13 24 C-12.74777641 22.06881404 -12.74777641 22.06881404 -12.83203125 19.98046875 C-12.79528648 7.3901349 -12.79528648 7.3901349 -10.55859375 3.48046875 C-7.32746248 0.61222911 -4.40689129 -0.80125296 0 0 Z " fill="#F9BA18" transform="translate(355,218)"/>
<path d="M0 0 C0.33 0 0.66 0 1 0 C1 52.14 1 104.28 1 158 C8.77772669 154.15340786 8.77772669 154.15340786 16.3125 149.9765625 C17.2288623 149.43845947 18.14522461 148.90035645 19.08935547 148.34594727 C20.04986816 147.77803467 21.01038086 147.21012207 22 146.625 C24.12726524 145.37572478 26.25488158 144.12704725 28.3828125 142.87890625 C29.47368164 142.23840332 30.56455078 141.59790039 31.68847656 140.93798828 C37.07000979 137.78857728 42.47202044 134.67493041 47.875 131.5625 C49.46622681 130.64500977 49.46622681 130.64500977 51.08959961 129.70898438 C56.23304742 126.74397899 61.37824085 123.78203049 66.52557373 120.82377625 C68.95334268 119.42818529 71.38043248 118.03141585 73.80743408 116.63449097 C75.53418688 115.64128534 77.26195832 114.64985135 78.98974609 113.65844727 C80.02566895 113.06217529 81.0615918 112.46590332 82.12890625 111.8515625 C83.04744385 111.32385254 83.96598145 110.79614258 84.91235352 110.25244141 C86.91520859 109.1656533 86.91520859 109.1656533 88 108 C88.1603556 104.97192956 88.25960448 101.96414546 88.31640625 98.93359375 C88.3475779 97.57065941 88.3475779 97.57065941 88.37937927 96.18019104 C88.44497672 93.26604054 88.5038068 90.35179696 88.5625 87.4375 C88.60567554 85.46678709 88.64928951 83.49608374 88.69335938 81.52539062 C88.80066843 76.68369012 88.90190675 71.84189563 89 67 C91.74042814 69.36254853 91.9781053 69.80179677 92.40405273 73.65771484 C92.43062461 75.17525506 92.43931956 76.69317547 92.43359375 78.2109375 C92.4388356 79.01608795 92.44407745 79.8212384 92.44947815 80.65078735 C92.45589955 82.35376839 92.45455978 84.05679377 92.44604492 85.75976562 C92.43755266 88.35888271 92.46626284 90.95578862 92.49804688 93.5546875 C92.49965951 95.21093684 92.49908016 96.86719006 92.49609375 98.5234375 C92.50732773 99.29754974 92.51856171 100.07166199 92.53013611 100.86923218 C92.4827427 104.56082978 92.15180679 106.7602383 90.15942383 109.90698242 C87.46746556 112.51615802 84.541384 114.21486764 81.25 115.9375 C79.80348089 116.72304258 78.35824855 117.51095763 76.9140625 118.30078125 C76.12676758 118.72955566 75.33947266 119.15833008 74.52832031 119.60009766 C69.84620617 122.19253127 65.24062039 124.916527 60.625 127.625 C50.9088526 133.31076273 41.17624585 138.96700858 31.41015625 144.56665039 C26.33328514 147.4805372 21.27921902 150.41981131 16.27734375 153.4609375 C15.40182861 153.98727783 14.52631348 154.51361816 13.62426758 155.0559082 C12.00275873 156.03337534 10.38874068 157.02342029 8.78393555 158.02807617 C8.07406494 158.4532251 7.36419434 158.87837402 6.6328125 159.31640625 C6.02324707 159.69224854 5.41368164 160.06809082 4.78564453 160.45532227 C3 161 3 161 -1 159 C-0.505 80.295 -0.505 80.295 0 0 Z " fill="#187DE1" transform="translate(251,135)"/>
<path d="M0 0 C0.66 0 1.32 0 2 0 C2.13277344 0.75925781 2.26554687 1.51851562 2.40234375 2.30078125 C2.57894531 3.29464844 2.75554687 4.28851563 2.9375 5.3125 C3.11152344 6.29863281 3.28554688 7.28476563 3.46484375 8.30078125 C3.95746847 11.08189213 3.95746847 11.08189213 5 14 C9.55643866 16.0003877 14.1001072 16.49311454 19 17 C18.95875 18.051875 18.9175 19.10375 18.875 20.1875 C18.99147875 23.74010173 19.47208068 25.84866641 21 29 C14.13583057 33.30692984 8.03743215 33.91431106 0 33 C-2.30859375 32.30859375 -2.30859375 32.30859375 -4 31 C-4.86328125 28.57421875 -4.86328125 28.57421875 -5.3125 25.6875 C-5.47363281 24.74261719 -5.63476562 23.79773438 -5.80078125 22.82421875 C-6.12911743 18.16957055 -5.01162848 14.71148374 -3 10.5625 C-1.37450427 7.0405926 -0.39921466 3.89234292 0 0 Z " fill="#FABC06" transform="translate(380,183)"/>
<path d="M0 0 C0.33 0 0.66 0 1 0 C1 3.63 1 7.26 1 11 C4.3 10.67 7.6 10.34 11 10 C11 26.5 11 43 11 60 C8.36 58.35 5.72 56.7 3 55 C2.2890625 51.80859375 2.2890625 51.80859375 2.625 48.4375 C2.99760711 44.08202496 3.09449197 41.8047426 1 38 C0.03140815 33.43233802 -0.11630035 29.07508751 -0.09765625 24.4140625 C-0.0962413 23.71227875 -0.09482635 23.010495 -0.09336853 22.28744507 C-0.0878129 20.06658496 -0.07526892 17.84582916 -0.0625 15.625 C-0.05747926 14.11067855 -0.05291736 12.5963555 -0.04882812 11.08203125 C-0.03785807 7.38798748 -0.02062449 3.69400394 0 0 Z " fill="#1C6AFE" transform="translate(206,198)"/>
<path d="M0 0 C1.89405585 9.04749892 2.62630808 16.87966429 1 26 C-0.134375 25.6390625 -1.26875 25.278125 -2.4375 24.90625 C-3.95815225 24.43691289 -5.478996 23.96819591 -7 23.5 C-8.11568359 23.14228516 -8.11568359 23.14228516 -9.25390625 22.77734375 C-15.0217925 21.02190011 -20.89401587 19.38948971 -26.53125 22.3125 C-27.1809375 22.869375 -27.830625 23.42625 -28.5 24 C-29.655 24.99 -30.81 25.98 -32 27 C-32 20.73 -32 14.46 -32 8 C-29.16671013 10.83328987 -28.2808625 12.35446828 -27 16 C-24.44562253 16.40078134 -22.63470048 16.37054328 -20.37158203 15.04931641 C-18.55267027 13.68915443 -16.80283216 12.27183128 -15.0625 10.8125 C-14.46759766 10.32974609 -13.87269531 9.84699219 -13.25976562 9.34960938 C-10.91057965 7.43688418 -8.58237381 5.5044353 -6.29248047 3.52099609 C-2.20017637 0 -2.20017637 0 0 0 Z " fill="#0454FB" transform="translate(374,198)"/>
<path d="M0 0 C0.24516415 1.70101545 0.41864489 3.41243913 0.5625 5.125 C0.66691406 6.07632813 0.77132813 7.02765625 0.87890625 8.0078125 C-0.57357957 12.95271977 -4.70503836 14.52391542 -9 17 C-9.82153564 17.50144531 -10.64307129 18.00289062 -11.48950195 18.51953125 C-13.9558204 20.02184733 -16.44243623 21.48351382 -18.9375 22.9375 C-19.78634766 23.44345703 -20.63519531 23.94941406 -21.50976562 24.47070312 C-22.31994141 24.94314453 -23.13011719 25.41558594 -23.96484375 25.90234375 C-24.6930835 26.33023193 -25.42132324 26.75812012 -26.17163086 27.19897461 C-26.77499268 27.46331299 -27.37835449 27.72765137 -28 28 C-28.66 27.67 -29.32 27.34 -30 27 C-30.1357675 25.41906283 -30.23234745 23.83473048 -30.3125 22.25 C-30.37050781 21.36828125 -30.42851562 20.4865625 -30.48828125 19.578125 C-29.79671039 15.92663086 -27.95653733 15.15960263 -25 13 C-21.3589399 10.63796639 -17.61247862 8.45564562 -13.875 6.25 C-12.87339844 5.64800781 -11.87179687 5.04601562 -10.83984375 4.42578125 C-9.87949219 3.85730469 -8.91914063 3.28882813 -7.9296875 2.703125 C-7.05554199 2.18395508 -6.18139648 1.66478516 -5.28076172 1.12988281 C-3 0 -3 0 0 0 Z " fill="#D1F3FF" transform="translate(317,223)"/>
<path d="M0 0 C4.75 0.75 4.75 0.75 7 3 C8.3695262 13.5649164 5.10500053 20.72223839 -0.59765625 29.3125 C-1.06042969 29.869375 -1.52320313 30.42625 -2 31 C-2.66 31 -3.32 31 -4 31 C-4.495 32.485 -4.495 32.485 -5 34 C-5.99 34 -6.98 34 -8 34 C-7.88406494 33.44650879 -7.76812988 32.89301758 -7.64868164 32.32275391 C-7.11462884 29.75791263 -6.58854068 27.19149603 -6.0625 24.625 C-5.88009766 23.75488281 -5.69769531 22.88476562 -5.50976562 21.98828125 C-4.43512915 16.71279309 -3.70896922 11.58545142 -3.43920898 6.20458984 C-2.90383409 3.51729953 -1.76279974 2.06154451 0 0 Z " fill="#0288FE" transform="translate(138,284)"/>
<path d="M0 0 C4.3890815 0.51035831 7.33708062 1.52214277 11 4 C10.4225 4.020625 9.845 4.04125 9.25 4.0625 C5.61609879 5.5766255 4.75149584 8.55956175 3 12 C1.68 12 0.36 12 -1 12 C-1.33 10.68 -1.66 9.36 -2 8 C-4.59256899 8.93545998 -4.59256899 8.93545998 -7 11 C-7.31921827 13.01107509 -7.63165517 15.02784396 -7.78125 17.05859375 C-8.10083716 19.89492982 -8.76720921 21.21376737 -11 23 C-15.33453498 23.64215333 -17.28670848 23.48564529 -20.9375 21 C-21.618125 20.34 -22.29875 19.68 -23 19 C-21.35 19 -19.7 19 -18 19 C-17.90525391 17.89591797 -17.90525391 17.89591797 -17.80859375 16.76953125 C-16.68235531 7.79518919 -16.68235531 7.79518919 -12.75 4.6875 C-9.75146263 2.92735228 -9.1717862 2.96564276 -5.5625 3.6875 C-4.716875 4.120625 -3.87125 4.55375 -3 5 C-2.01 3.35 -1.02 1.7 0 0 Z " fill="#81A8FA" transform="translate(175,77)"/>
<path d="M0 0 C4.75 0.75 4.75 0.75 7 3 C8.31158744 10.95236172 6.53241886 17.44172726 2 24 C-0.63277458 27.20150502 -3.02431683 29.6811178 -7.2265625 30.359375 C-9.4375 30.375 -9.4375 30.375 -13 30 C-13.66 28.68 -14.32 27.36 -15 26 C-13.6696875 25.443125 -13.6696875 25.443125 -12.3125 24.875 C-5.23254302 20.86747718 -2.19661151 14.62212189 0 7 C0.27485443 4.54376116 0.21526593 2.47555821 0 0 Z " fill="#D8DBE1" transform="translate(140,61)"/>
<path d="M0 0 C0.57878906 0.22300781 1.15757812 0.44601563 1.75390625 0.67578125 C1.56249904 9.01069517 -0.25957335 15.35036203 -5.9921875 21.5703125 C-10.46301412 25.67578125 -10.46301412 25.67578125 -15.24609375 25.67578125 C-15.85610419 18.11165179 -14.56001936 12.97597477 -10.24609375 6.67578125 C-3.83046342 -0.55291907 -3.83046342 -0.55291907 0 0 Z " fill="#0455FD" transform="translate(139.24609375,61.32421875)"/>
<path d="M0 0 C0 35.64 0 71.28 0 108 C-0.66 107.67 -1.32 107.34 -2 107 C-2 72.35 -2 37.7 -2 2 C-5.63 3.98 -9.26 5.96 -13 8 C-14.32 7.67 -15.64 7.34 -17 7 C-14.73595458 5.63319847 -12.46498979 4.28155555 -10.1875 2.9375 C-9.54490234 2.54755859 -8.90230469 2.15761719 -8.24023438 1.75585938 C-3.33984375 -1.11328125 -3.33984375 -1.11328125 0 0 Z " fill="#469BF0" transform="translate(342,81)"/>
<path d="M0 0 C2.97915664 1.48957832 3.12293383 3.52738148 4.1875 6.625 C5.72638024 11.51354813 6.66604768 15.00185695 5 20 C3.51150178 22.61520869 1.95195359 24.66717741 0 27 C-0.66 27 -1.32 27 -2 27 C-3.6875 24.9375 -3.6875 24.9375 -5 22 C-4.814375 20.9275 -4.62875 19.855 -4.4375 18.75 C-3.84218519 13.64730165 -5.65267078 10.44279908 -8 6 C-7.05125 5.566875 -6.1025 5.13375 -5.125 4.6875 C-1.79958063 3.20697799 -1.79958063 3.20697799 0 0 Z " fill="#E78C92" transform="translate(408,193)"/>
<path d="M0 0 C4.75 0.75 4.75 0.75 7 3 C7.71719252 8.9424523 6.86119626 12.34050699 3.41796875 17.23046875 C1.42937815 19.71209834 -0.19005818 21.46122233 -3 23 C-6.8125 22.75 -6.8125 22.75 -10 22 C-9.41248535 18.68525684 -8.35951919 16.9943076 -6.0625 14.5625 C-2.01648352 10.01315132 -0.83886437 6.01186129 0 0 Z " fill="#D6D9E1" transform="translate(175,96)"/>
<path d="M0 0 C0.33 0 0.66 0 1 0 C1 52.14 1 104.28 1 158 C1.66 158.33 2.32 158.66 3 159 C2.01 159.33 1.02 159.66 0 160 C-1 159 -1 159 -1.10743046 156.39379025 C-1.09913432 155.22219136 -1.09083818 154.05059248 -1.08229065 152.8434906 C-1.07906152 152.19335135 -1.07583239 151.5432121 -1.07250541 150.87337166 C-1.06037207 148.67911372 -1.04101165 146.48497741 -1.02172852 144.29077148 C-1.01159188 142.72414417 -1.00189755 141.15751395 -0.99261475 139.59088135 C-0.96607204 135.32450774 -0.93330532 131.05820149 -0.89946485 126.79188037 C-0.86518268 122.33825202 -0.83656386 117.88458747 -0.80735779 113.43092346 C-0.75114526 104.99130015 -0.68980078 96.55172217 -0.62663645 88.11214834 C-0.55499318 78.50653045 -0.48903459 68.90087619 -0.42356598 59.29521453 C-0.2887263 39.5300958 -0.14670713 19.76503398 0 0 Z " fill="#0E7BE8" transform="translate(251,135)"/>
<path d="M0 0 C0.33 0 0.66 0 1 0 C1.28861021 4.80121511 1.57327978 9.60264278 1.85449219 14.40429688 C1.95044666 16.03359087 2.04742864 17.66282472 2.14550781 19.29199219 C2.66132371 27.87137903 3.13898081 36.40056265 3 45 C2.67 45 2.34 45 2 45 C1.76216797 43.60587891 1.76216797 43.60587891 1.51953125 42.18359375 C0.25503747 34.13356009 0.25503747 34.13356009 -3.8125 27.3125 C-6.25935174 23.60726736 -6.25540359 23.03839482 -5.5625 18.875 C-4.02830072 12.49876138 -2.04049141 6.23043252 0 0 Z " fill="#1E6CF6" transform="translate(390,244)"/>
<path d="M0 0 C0.66 1.32 1.32 2.64 2 4 C3.98 3.34 5.96 2.68 8 2 C5.60490662 4.89932357 3.68754757 5.50168276 0 6 C-0.33 9.3 -0.66 12.6 -1 16 C-3.31 16.99 -5.62 17.98 -8 19 C-10.4008249 14.79855643 -11.7002728 11.85189014 -11 7 C-8.59375 4.8828125 -8.59375 4.8828125 -5.5 3.125 C-4.4790625 2.52945313 -3.458125 1.93390625 -2.40625 1.3203125 C-1.21515625 0.66675781 -1.21515625 0.66675781 0 0 Z " fill="#F9D03A" transform="translate(340,245)"/>
<path d="M0 0 C1.32 5.94 2.64 11.88 4 18 C-2 18 -2 18 -4.0625 16.1875 C-6.81915647 11.65235548 -8.91686266 6.87488287 -11 2 C-9.5422647 1.664061 -8.08378894 1.33133376 -6.625 1 C-5.40683594 0.7215625 -5.40683594 0.7215625 -4.1640625 0.4375 C-2 0 -2 0 0 0 Z " fill="#226AF9" transform="translate(179,215)"/>
<path d="M0 0 C3.48050799 1.54689244 6.37002149 3.21973701 9 6 C9.3125 9.375 9.3125 9.375 8 13 C5.63003073 15.59985082 3.19699267 17.51611284 0 19 C-2.875 18.4375 -2.875 18.4375 -5 17 C-5.66 16.67 -6.32 16.34 -7 16 C-7 15.34 -7 14.68 -7 14 C-5.576875 13.1028125 -5.576875 13.1028125 -4.125 12.1875 C-0.80271089 9.86189762 0.1453175 8.89355359 1 5 C0.70480232 2.2663568 0.70480232 2.2663568 0 0 Z " fill="#EAEDF4" transform="translate(109,68)"/>
<path d="M0 0 C2.74042814 2.36254853 2.9781053 2.80179677 3.40405273 6.65771484 C3.43062461 8.17525506 3.43931956 9.69317547 3.43359375 11.2109375 C3.4388356 12.01608795 3.44407745 12.8212384 3.44947815 13.65078735 C3.45589955 15.35376839 3.45455978 17.05679377 3.44604492 18.75976562 C3.43755266 21.35888271 3.46626284 23.95578862 3.49804688 26.5546875 C3.49965951 28.21093684 3.49908016 29.86719006 3.49609375 31.5234375 C3.51294472 32.68460587 3.51294472 32.68460587 3.53013611 33.86923218 C3.46568182 38.88974742 2.58593529 41.47595564 -1 45 C-3.21875 46.6171875 -3.21875 46.6171875 -5.5 47.875 C-6.2528125 48.30554688 -7.005625 48.73609375 -7.78125 49.1796875 C-10.37769166 50.13963952 -11.41175895 49.76655933 -14 49 C-13.07678955 48.66613281 -12.1535791 48.33226562 -11.20239258 47.98828125 C-7.1914978 46.13173113 -3.77755934 44.50849601 -1 41 C1.34171287 34.38424641 0.54130057 26.90146791 0.3125 20 C0.29549334 18.06124092 0.2843672 16.12242079 0.27929688 14.18359375 C0.25417277 9.45230914 0.14889057 4.72894224 0 0 Z " fill="#3E94E6" transform="translate(340,202)"/>
<path d="M0 0 C1.98 0.66 3.96 1.32 6 2 C6.76681614 11.73004484 6.76681614 11.73004484 4.88671875 14.84375 C3.5 16.1875 3.5 16.1875 1 18 C-1.97 17.01 -4.94 16.02 -8 15 C-6 13 -4 11 -2 9 C-1.60851239 7.48834346 -1.26027543 5.96530368 -0.9375 4.4375 C-0.76089844 3.61121094 -0.58429688 2.78492188 -0.40234375 1.93359375 C-0.26957031 1.29550781 -0.13679688 0.65742187 0 0 Z " fill="#D7DBE2" transform="translate(125,44)"/>
<path d="M0 0 C0.33 0 0.66 0 1 0 C1.33 2.97 1.66 5.94 2 9 C3.65 9 5.3 9 7 9 C7 10.65 7 12.3 7 14 C5.68 14.33 4.36 14.66 3 15 C3 16.98 3 18.96 3 21 C1.33388095 21.042721 -0.33382885 21.04063832 -2 21 C-3 20 -3 20 -3.0625 16.9375 C-3.041875 15.968125 -3.02125 14.99875 -3 14 C-3.66 14 -4.32 14 -5 14 C-4.74279326 12.41439607 -4.46861201 10.83154076 -4.1875 9.25 C-3.96126953 7.92742187 -3.96126953 7.92742187 -3.73046875 6.578125 C-2.9420543 3.79548575 -1.9128413 2.14880859 0 0 Z " fill="#F0A1A5" transform="translate(380,156)"/>
<path d="M0 0 C-0.51192885 4.53859307 -0.51192885 4.53859307 -2.64453125 6.5546875 C-3.35996094 6.99039063 -4.07539063 7.42609375 -4.8125 7.875 C-5.61558594 8.37 -6.41867187 8.865 -7.24609375 9.375 C-8.15488281 9.91125 -9.06367188 10.4475 -10 11 C-11.04285156 11.639375 -12.08570313 12.27875 -13.16015625 12.9375 C-21.56023185 18 -21.56023185 18 -25 18 C-24.80249023 15.70825195 -24.80249023 15.70825195 -24 13 C-21.89868164 11.23901367 -21.89868164 11.23901367 -19.16015625 9.66796875 C-18.17982422 9.09755859 -17.19949219 8.52714844 -16.18945312 7.93945312 C-15.15755859 7.36130859 -14.12566406 6.78316406 -13.0625 6.1875 C-12.03447266 5.59001953 -11.00644531 4.99253906 -9.94726562 4.37695312 C-2.32886607 0 -2.32886607 0 0 0 Z " fill="#D2F3FF" transform="translate(287,205)"/>
<path d="M0 0 C-0.18164062 2.29174805 -0.18164062 2.29174805 -1 5 C-3.20898438 6.76098633 -3.20898438 6.76098633 -6.09375 8.33203125 C-7.12371094 8.90244141 -8.15367187 9.47285156 -9.21484375 10.06054688 C-10.29894531 10.63869141 -11.38304687 11.21683594 -12.5 11.8125 C-14.12615234 12.7087207 -14.12615234 12.7087207 -15.78515625 13.62304688 C-23.77872321 18 -23.77872321 18 -25 18 C-25.29418945 15.70825195 -25.29418945 15.70825195 -25 13 C-23.02807617 11.23901367 -23.02807617 11.23901367 -20.29296875 9.66796875 C-19.31392578 9.09755859 -18.33488281 8.52714844 -17.32617188 7.93945312 C-16.29041016 7.36130859 -15.25464844 6.78316406 -14.1875 6.1875 C-13.16333984 5.59001953 -12.13917969 4.99253906 -11.08398438 4.37695312 C-3.45558036 0 -3.45558036 0 0 0 Z " fill="#D2F3FF" transform="translate(287,171)"/>
<path d="M0 0 C-0.36577034 2.54947383 -0.68719798 3.72286187 -2.64453125 5.45703125 C-3.35996094 5.90433594 -4.07539063 6.35164063 -4.8125 6.8125 C-6.0190625 7.56853516 -6.0190625 7.56853516 -7.25 8.33984375 C-8.1575 8.88769531 -9.065 9.43554688 -10 10 C-11.03125 10.64066406 -12.0625 11.28132813 -13.125 11.94140625 C-21.46401515 17 -21.46401515 17 -26 17 C-24.67093944 12.66782226 -23.24477408 11.08858511 -19.31640625 8.88671875 C-18.38892578 8.36142578 -17.46144531 7.83613281 -16.50585938 7.29492188 C-15.04889648 6.49924805 -15.04889648 6.49924805 -13.5625 5.6875 C-12.59505859 5.13771484 -11.62761719 4.58792969 -10.63085938 4.02148438 C-3.43215256 0 -3.43215256 0 0 0 Z " fill="#374850" transform="translate(298,79)"/>
<path d="M0 0 C0.66 0.33 1.32 0.66 2 1 C0.00018018 5.33097073 -2.0172443 9.65302397 -4.05078125 13.96826172 C-4.92415313 15.83765493 -5.77564351 17.71722997 -6.625 19.59765625 C-7.12 20.65855469 -7.615 21.71945313 -8.125 22.8125 C-8.56070312 23.76769531 -8.99640625 24.72289062 -9.4453125 25.70703125 C-11.3220884 28.47503993 -12.83794609 29.07906511 -16 30 C-5.5889538 3.7259692 -5.5889538 3.7259692 0 0 Z " fill="#FCBD1D" transform="translate(304,124)"/>
<path d="M0 0 C0.66 0 1.32 0 2 0 C2.6947415 12.27376652 -1.31996166 20.56869401 -9 30 C-10.74556278 26.50887444 -9.07624179 22.74903019 -8.25 19.0625 C-8.07984375 18.23814453 -7.9096875 17.41378906 -7.734375 16.56445312 C-7.47140625 15.37432617 -7.47140625 15.37432617 -7.203125 14.16015625 C-7.04489258 13.43449463 -6.88666016 12.70883301 -6.72363281 11.96118164 C-5.88819742 9.69699389 -4.8042872 8.57024926 -3 7 C-2.67 8.98 -2.34 10.96 -2 13 C-0.71553081 10.43106162 -0.67022856 8.23423663 -0.4375 5.375 C-0.35371094 4.37210937 -0.26992187 3.36921875 -0.18359375 2.3359375 C-0.12300781 1.56507813 -0.06242188 0.79421875 0 0 Z " fill="#51CCFC" transform="translate(140,288)"/>
<path d="M0 0 C0.39253254 4.44870215 -0.84694043 7.14243493 -3 11 C-9.83981276 10.48378772 -15.63876684 8.51409031 -22 6 C-22 4.68 -22 3.36 -22 2 C-20.68 2 -19.36 2 -18 2 C-18 2.66 -18 3.32 -18 4 C-13.03926578 5.32286246 -8.08888488 5.08893197 -3 5 C-3.33 3.68 -3.66 2.36 -4 1 C-1 0 -1 0 0 0 Z " fill="#35485A" transform="translate(401,314)"/>
<path d="M0 0 C1.65 0 3.3 0 5 0 C5.1875 2.875 5.1875 2.875 5 6 C4.01 6.66 3.02 7.32 2 8 C2 8.99 2 9.98 2 11 C-1.17412177 12.58706088 -4.53638667 12.28477127 -8 12 C-11 11 -11 11 -13 10 C-13 9.34 -13 8.68 -13 8 C-10.69 8 -8.38 8 -6 8 C-6 7.01 -6 6.02 -6 5 C-4.02 4.67 -2.04 4.34 0 4 C0 2.68 0 1.36 0 0 Z " fill="#EEA1A4" transform="translate(396,308)"/>
<path d="M0 0 C4.875 1.875 4.875 1.875 6 3 C6.36090226 10.45864662 6.36090226 10.45864662 4 14 C-0.302317 14.56823055 -2.3131706 14.46762853 -5.9375 12 C-6.618125 11.34 -7.29875 10.68 -8 10 C-6.35 10 -4.7 10 -3 10 C-1.11608215 6.73454239 -0.50712033 3.71888239 0 0 Z " fill="#DDDFE4" transform="translate(160,86)"/>
<path d="M0 0 C2.31 0.33 4.62 0.66 7 1 C6.46515599 6.34844008 4.53309233 10.35796103 2 15 C-1.465 13.02 -1.465 13.02 -5 11 C-4.32902328 6.80639551 -2.1441606 3.59665648 0 0 Z " fill="#6C9BFE" transform="translate(112,56)"/>
<path d="M0 0 C1.98 0.99 3.96 1.98 6 3 C5.49759991 7.39600078 4.17813935 9.90775631 1 13 C-2.25 13.8125 -2.25 13.8125 -5 14 C-5.46733615 9.42010577 -5.17261016 6.75145487 -2.5 3.0625 C-1.675 2.051875 -0.85 1.04125 0 0 Z " fill="#6F9DFC" transform="translate(145,37)"/>
<path d="M0 0 C0.66 0.33 1.32 0.66 2 1 C1.41017731 8.37278364 -1.43107753 13.17360052 -7 18 C-7.66 18 -8.32 18 -9 18 C-8.83525352 11.39516398 -7.6434427 6.84474802 -3 2 C-2.01 1.34 -1.02 0.68 0 0 Z " fill="#0656FD" transform="translate(173,97)"/>
<path d="M0 0 C0.66 0 1.32 0 2 0 C1.79503906 0.845625 1.59007813 1.69125 1.37890625 2.5625 C-1.08533789 12.9382648 -2.16016541 22.32230615 -2 33 C-0.68 32.34 0.64 31.68 2 31 C2 31.66 2 32.32 2 33 C0.35 33.66 -1.3 34.32 -3 35 C-3 36.98 -3 38.96 -3 41 C-3.66 41 -4.32 41 -5 41 C-5.02578125 40.33613281 -5.0515625 39.67226563 -5.078125 38.98828125 C-5.44457425 33.28333272 -6.04911807 30.34597012 -10 26 C-9.505 24.515 -9.505 24.515 -9 23 C-8.01 24.65 -7.02 26.3 -6 28 C-5.88930176 27.36497559 -5.77860352 26.72995117 -5.66455078 26.07568359 C-5.1560819 23.1746067 -4.64060426 20.27481687 -4.125 17.375 C-3.95097656 16.37597656 -3.77695313 15.37695312 -3.59765625 14.34765625 C-2.71563102 9.41484848 -1.78256817 4.70533761 0 0 Z " fill="#FEE6A3" transform="translate(121,285)"/>
<path d="M0 0 C3 3 3 3 3.9375 5.625 C4.7498001 8.19124685 4.7498001 8.19124685 7.125 8.8125 C7.74375 8.874375 8.3625 8.93625 9 9 C9 9.66 9 10.32 9 11 C9.99 11.33 10.98 11.66 12 12 C10.33984375 12.65104167 8.6796875 13.30208333 7.01953125 13.953125 C4.34859003 15.25430094 4.34859003 15.25430094 0 19 C0 12.73 0 6.46 0 0 Z " fill="#2569F7" transform="translate(342,206)"/>
<path d="M0 0 C1.00821159 2.68856424 1.22736824 4.41703215 0.17578125 7.11328125 C-0.83395302 9.10794931 -1.88106647 11.0646772 -3 13 C-7.75 11.125 -7.75 11.125 -10 10 C-9.44649229 6.67895374 -8.85908781 3.83755508 -7 1 C-4.0449252 -1.00182486 -3.50436101 -1.16812034 0 0 Z " fill="#D7DAE1" transform="translate(117,95)"/>
<path d="M0 0 C1.98 0.99 3.96 1.98 6 3 C6.3125 5.75 6.3125 5.75 6 9 C3.875 11.5 3.875 11.5 1 13 C-2.25 12.4375 -2.25 12.4375 -5 11 C-5.33 10.01 -5.66 9.02 -6 8 C-5.071875 7.4121875 -5.071875 7.4121875 -4.125 6.8125 C-1.67503632 4.72282509 -0.98120002 3.02536673 0 0 Z " fill="#EEF0F4" transform="translate(152,107)"/>
<path d="M0 0 C4.93264249 2.55440415 4.93264249 2.55440415 7 5 C7.62399396 8.73347646 7.41382683 12.24928385 7 16 C3.99434471 14.66489865 1.3903844 13.28054179 -1 11 C-1.95216534 7.19133864 -1.76194497 3.52388993 0 0 Z " fill="#0487FB" transform="translate(210,242)"/>
<path d="M0 0 C-1.89583333 1.16666667 -3.79166667 2.33333333 -5.6875 3.5 C-6.26532227 3.85658691 -6.84314453 4.21317383 -7.43847656 4.58056641 C-10.52402674 6.4834057 -13.61565932 8.37453986 -16.72265625 10.2421875 C-17.31409424 10.59990234 -17.90553223 10.95761719 -18.51489258 11.32617188 C-20.17988072 12.33261469 -21.84769332 13.33438044 -23.515625 14.3359375 C-26.08676126 15.76164729 -26.08676126 15.76164729 -27 18 C-27.66 18 -28.32 18 -29 18 C-28.63269121 15.53903109 -28.33778176 14.30434651 -26.4609375 12.61328125 C-25.77257812 12.18402344 -25.08421875 11.75476563 -24.375 11.3125 C-23.57449219 10.81234375 -22.77398437 10.3121875 -21.94921875 9.796875 C-20.97597656 9.20390625 -20.00273437 8.6109375 -19 8 C-17.73498489 7.19379342 -16.47070899 6.38642621 -15.20703125 5.578125 C-13.8680127 4.73826625 -12.52816667 3.89972535 -11.1875 3.0625 C-10.54151855 2.64846924 -9.89553711 2.23443848 -9.22998047 1.80786133 C-5.68283126 -0.36394753 -3.96513707 -1.33721314 0 0 Z " fill="#2589ED" transform="translate(280,117)"/>
<path d="M0 0 C2.64 1.32 5.28 2.64 8 4 C7.195625 4.495 6.39125 4.99 5.5625 5.5 C2.01911662 8.95695939 2.2426059 11.14788209 2 16 C1.67 16 1.34 16 1 16 C0.938125 14.906875 0.87625 13.81375 0.8125 12.6875 C0.3867767 8.85667284 0.3867767 8.85667284 -2.5625 7.0625 C-3.366875 6.711875 -4.17125 6.36125 -5 6 C-5 7.98 -5 9.96 -5 12 C-5.33 12 -5.66 12 -6 12 C-6.375 8.8125 -6.375 8.8125 -6 5 C-4.18811972 2.8596502 -2.34198833 1.61011698 0 0 Z " fill="#6998FB" transform="translate(165,80)"/>
<path d="M0 0 C3.465 1.98 3.465 1.98 7 4 C6.01 6.64 5.02 9.28 4 12 C0 12 0 12 -1.8125 10.8125 C-3 9 -3 9 -2.8125 6.5625 C-2.06651171 4.20976771 -1.19665408 2.15397735 0 0 Z " fill="#6A9AFE" transform="translate(151,96)"/>
<path d="M0 0 C1.051875 0.680625 1.051875 0.680625 2.125 1.375 C2.785 1.705 3.445 2.035 4.125 2.375 C3.795 3.365 3.465 4.355 3.125 5.375 C1.125 6.04166667 -0.875 6.70833333 -2.875 7.375 C-3.205 8.365 -3.535 9.355 -3.875 10.375 C-3.875 9.385 -3.875 8.395 -3.875 7.375 C-5.855 6.715 -7.835 6.055 -9.875 5.375 C-10.205 6.035 -10.535 6.695 -10.875 7.375 C-10.875 6.385 -10.875 5.395 -10.875 4.375 C-7.63443229 1.37566562 -4.42540894 -0.96204542 0 0 Z " fill="#6999FD" transform="translate(134.875,38.625)"/>
<path d="M0 0 C5.875 2.875 5.875 2.875 7 4 C7.07179964 5.51928038 7.08392007 7.04167482 7.0625 8.5625 C7.05347656 9.38878906 7.04445313 10.21507813 7.03515625 11.06640625 C7.01775391 12.02353516 7.01775391 12.02353516 7 13 C1.125 11.125 1.125 11.125 0 10 C-0.07205511 8.31391034 -0.08386068 6.62499341 -0.0625 4.9375 C-0.05347656 4.01839844 -0.04445313 3.09929687 -0.03515625 2.15234375 C-0.02355469 1.44207031 -0.01195313 0.73179688 0 0 Z " fill="#6597FE" transform="translate(101,83)"/>
<path d="M0 0 C2.23612531 1.07665293 4.29752033 2.19573706 6.375 3.5625 C9.28462614 5.1558667 11.72480174 5.61916299 15 6 C13.25718374 8.32375501 12.2628002 8.94994282 9.375 9.5 C4.6059172 8.79346921 1.05250775 6.52156037 -3 4 C-3 3.34 -3 2.68 -3 2 C-2.01 1.34 -1.02 0.68 0 0 Z " fill="#0251F9" transform="translate(217,315)"/>
<path d="M0 0 C3.48050799 1.54689244 6.37002149 3.21973701 9 6 C8.9375 9.6875 8.9375 9.6875 8 13 C7.01 13.495 7.01 13.495 6 14 C6 13.34 6 12.68 6 12 C4.02 11.34 2.04 10.68 0 10 C0.29296875 7.98177083 0.5859375 5.96354167 0.87890625 3.9453125 C1.1684297 1.91859333 1.1684297 1.91859333 0 0 Z " fill="#D3D8E2" transform="translate(109,68)"/>
<path d="M0 0 C0.99 0 1.98 0 3 0 C4.07824207 3.2347262 3.99049544 5.13539395 3.6875 8.5 C3.60886719 9.4590625 3.53023437 10.418125 3.44921875 11.40625 C3 14 3 14 1 17 C0.34 15.02 -0.32 13.04 -1 11 C-1.33 11 -1.66 11 -2 11 C-2.25 3.375 -2.25 3.375 0 0 Z " fill="#06AFFE" transform="translate(137,285)"/>
<path d="M0 0 C-1.1446875 0.8971875 -1.1446875 0.8971875 -2.3125 1.8125 C-7.60877827 6.12342417 -9.55240216 9.01739646 -10.34375 16.05859375 C-10.59641252 19.03790601 -10.81649899 22.01569414 -11 25 C-11.33 25 -11.66 25 -12 25 C-12.0582253 21.91674642 -12.09367134 18.83363495 -12.125 15.75 C-12.14175781 14.87730469 -12.15851563 14.00460938 -12.17578125 13.10546875 C-12.18222656 12.26113281 -12.18867188 11.41679687 -12.1953125 10.546875 C-12.20578613 9.77182617 -12.21625977 8.99677734 -12.22705078 8.19824219 C-11.96937869 5.70353301 -11.31629448 4.12450976 -10 2 C-8.125 0.91796875 -8.125 0.91796875 -6 0.1875 C-4.948125 -0.19341797 -4.948125 -0.19341797 -3.875 -0.58203125 C-2 -1 -2 -1 0 0 Z " fill="#1B9D89" transform="translate(403,233)"/>
<path d="M0 0 C0.33 0.99 0.66 1.98 1 3 C-2.83314543 8.63697858 -2.83314543 8.63697858 -6.8125 9.875 C-7.534375 9.91625 -8.25625 9.9575 -9 10 C-9.33 8.68 -9.66 7.36 -10 6 C-6.7 4.02 -3.4 2.04 0 0 Z " fill="#364852" transform="translate(284,278)"/>
<path d="M0 0 C1.15837626 4.05431692 0.83691257 6.21812119 -1 10 C-5.75 8.125 -5.75 8.125 -8 7 C-8 6.01 -8 5.02 -8 4 C-2.74285714 0 -2.74285714 0 0 0 Z " fill="#D1D6E2" transform="translate(160,123)"/>
<path d="M0 0 C2.64465038 3.1254959 3.84414715 6.08788267 5 10 C4.01 10.99 3.02 11.98 2 13 C-2.048 7.848 -2.048 7.848 -1.8125 3.6875 C-1 1 -1 1 0 0 Z " fill="#1659F1" transform="translate(400,200)"/>
<path d="M0 0 C0.66 0 1.32 0 2 0 C0.87196517 3.8968476 -0.61712591 7.57135811 -2.3125 11.25 C-2.70050781 12.10078125 -3.08851563 12.9515625 -3.48828125 13.828125 C-5.34572034 16.49669382 -6.93518451 17.07593503 -10 18 C-9.01 15.36 -8.02 12.72 -7 10 C-6.01 10 -5.02 10 -4 10 C-3.71125 9.0925 -3.4225 8.185 -3.125 7.25 C-2.23468224 4.67797092 -1.28505587 2.38653234 0 0 Z " fill="#FC8E13" transform="translate(298,136)"/>
<path d="M0 0 C3.96 1.98 3.96 1.98 8 4 C8 5.65 8 7.3 8 9 C8.99 9.33 9.98 9.66 11 10 C8 11 8 11 4.375 9.5 C2.51953125 8.390625 2.51953125 8.390625 1 7 C0.0625 3.25 0.0625 3.25 0 0 Z " fill="#6596FD" transform="translate(145,116)"/>
<path d="M0 0 C0.33 0 0.66 0 1 0 C1.81488652 7.22834521 0.74862283 11.46206764 -3.4921875 17.3828125 C-4.23855469 18.18332031 -4.23855469 18.18332031 -5 19 C-5.66 19 -6.32 19 -7 19 C-7.33 19.99 -7.66 20.98 -8 22 C-8.66 21.67 -9.32 21.34 -10 21 C-9.52949219 20.40574219 -9.05898437 19.81148438 -8.57421875 19.19921875 C-3.94462661 13.03601431 -1.50702893 7.54949728 0 0 Z " fill="#08A0FE" transform="translate(141,296)"/>
<path d="M0 0 C3 3 3 3 4 5.625 C4.495 6.800625 4.495 6.800625 5 8 C5.99 8.33 6.98 8.66 8 9 C4.98968256 9.93423645 4.13349732 10.04449911 1 9 C1 12.3 1 15.6 1 19 C0.67 19 0.34 19 0 19 C0 12.73 0 6.46 0 0 Z " fill="#0C63F6" transform="translate(342,206)"/>
<path d="M0 0 C0.33 0 0.66 0 1 0 C1 3.96 1 7.92 1 12 C1.66 12.33 2.32 12.66 3 13 C1.42652824 14.035969 -0.15921546 15.05331732 -1.75 16.0625 C-2.63171875 16.63097656 -3.5134375 17.19945313 -4.421875 17.78515625 C-7 19 -7 19 -9.328125 18.68359375 C-10.15570313 18.34521484 -10.15570313 18.34521484 -11 18 C-9.93458984 17.55914062 -9.93458984 17.55914062 -8.84765625 17.109375 C-5.82259552 15.63290777 -3.47175508 14.2991112 -1 12 C0.16834693 7.95453442 0.23034257 4.18681496 0 0 Z " fill="#4692DD" transform="translate(324,77)"/>
<path d="M0 0 C0.99 0 1.98 0 3 0 C3.36923077 5.53846154 3.36923077 5.53846154 1.5 7.875 C0.7575 8.431875 0.7575 8.431875 0 9 C-0.99 8.67 -1.98 8.34 -3 8 C-2.25 2.25 -2.25 2.25 0 0 Z " fill="#384951" transform="translate(264,95)"/>
<path d="M0 0 C2.9375 0.25 2.9375 0.25 6 1 C6.66 1.99 7.32 2.98 8 4 C4.535 5.485 4.535 5.485 1 7 C0.34 5.02 -0.32 3.04 -1 1 C-0.67 0.67 -0.34 0.34 0 0 Z " fill="#6596FE" transform="translate(154,52)"/>
<path d="M0 0 C1.98 0 3.96 0 6 0 C6 2.64 6 5.28 6 8 C4.02 7.01 2.04 6.02 0 5 C0 3.35 0 1.7 0 0 Z " fill="#D1D6E2" transform="translate(125,102)"/>
<path d="M0 0 C1.98 0.99 3.96 1.98 6 3 C6 4.98 6 6.96 6 9 C5.67 8.34 5.34 7.68 5 7 C3.7625 6.566875 3.7625 6.566875 2.5 6.125 C0 5 0 5 -0.875 2.9375 C-0.91625 2.298125 -0.9575 1.65875 -1 1 C-0.67 0.67 -0.34 0.34 0 0 Z " fill="#D8DBE2" transform="translate(152,107)"/>
<path d="M0 0 C-1.20523048 3.61569144 -2.07185564 3.94669545 -5.3125 5.75 C-6.48232422 6.42289062 -6.48232422 6.42289062 -7.67578125 7.109375 C-10.30300917 8.11611108 -11.40927388 7.97226335 -14 7 C-12.04480616 5.82807953 -10.0857461 4.6626071 -8.125 3.5 C-7.03445313 2.8503125 -5.94390625 2.200625 -4.8203125 1.53125 C-2 0 -2 0 0 0 Z " fill="#1980EA" transform="translate(339,81)"/>
<path d="M0 0 C1.65 0 3.3 0 5 0 C5 1.98 5 3.96 5 6 C3.68 6.33 2.36 6.66 1 7 C0.67 4.69 0.34 2.38 0 0 Z " fill="#D08B95" transform="translate(396,308)"/>
<path d="M0 0 C1.98 0.495 1.98 0.495 4 1 C4.33 2.65 4.66 4.3 5 6 C3.68 6.33 2.36 6.66 1 7 C-1 4 -1 4 -0.625 1.8125 C-0.41875 1.214375 -0.2125 0.61625 0 0 Z " fill="#40535D" transform="translate(222,132)"/>
<path d="M0 0 C1.98 0.495 1.98 0.495 4 1 C4.33 2.65 4.66 4.3 5 6 C4.01 6.33 3.02 6.66 2 7 C0.4375 5.75 0.4375 5.75 -1 4 C-0.6875 1.8125 -0.6875 1.8125 0 0 Z " fill="#40535D" transform="translate(222,152)"/>
<path d="M0 0 C1.98 0.99 3.96 1.98 6 3 C4.68 4.32 3.36 5.64 2 7 C1.01 6.67 0.02 6.34 -1 6 C-0.67 4.02 -0.34 2.04 0 0 Z " fill="#6697FE" transform="translate(186,85)"/>
<path d="M0 0 C0 0.99 0 1.98 0 3 C-0.66 3 -1.32 3 -2 3 C-2.28875 3.9075 -2.5775 4.815 -2.875 5.75 C-3.76531776 8.32202908 -4.71494413 10.61346766 -6 13 C-6.66 13 -7.32 13 -8 13 C-6.47549821 7.19945661 -5.34673609 3.32364676 0 0 Z " fill="#FDB811" transform="translate(300,133)"/>
<path d="M0 0 C-1 3 -1 3 -3.1875 4.625 C-6.17152633 6.08385732 -8.71554694 6.61808685 -12 7 C-9.20232475 3.70861735 -4.40323273 0 0 0 Z " fill="#1D82E7" transform="translate(274,282)"/>
<path d="M0 0 C1.32 0.66 2.64 1.32 4 2 C2.68 3.32 1.36 4.64 0 6 C-0.99 5.67 -1.98 5.34 -3 5 C-3 4.01 -3 3.02 -3 2 C-2.01 1.34 -1.02 0.68 0 0 Z " fill="#F7971D" transform="translate(302,141)"/>
<path d="M0 0 C1.32 0.66 2.64 1.32 4 2 C2.75 3.5625 2.75 3.5625 1 5 C-1.1875 4.6875 -1.1875 4.6875 -3 4 C-3 3.34 -3 2.68 -3 2 C-2.01 1.34 -1.02 0.68 0 0 Z " fill="#F9B30E" transform="translate(292,131)"/>
<path d="M0 0 C0.36923077 4.55384615 0.36923077 4.55384615 -1.5 6.8125 C-1.995 7.204375 -2.49 7.59625 -3 8 C-3 7.34 -3 6.68 -3 6 C-3.66 5.67 -4.32 5.34 -5 5 C-4.34 5 -3.68 5 -3 5 C-3.33 3.68 -3.66 2.36 -4 1 C-1 0 -1 0 0 0 Z " fill="#3A4C62" transform="translate(401,314)"/>
<path d="M0 0 C0.33 1.32 0.66 2.64 1 4 C0.01 5.485 0.01 5.485 -1 7 C-1.66 7 -2.32 7 -3 7 C-3.33 7.99 -3.66 8.98 -4 10 C-4.66 9.67 -5.32 9.34 -6 9 C-4.02 6.03 -2.04 3.06 0 0 Z " fill="#12B3FF" transform="translate(137,308)"/>
<path d="M0 0 C1.33332095 2.6666419 0.67102033 4.16680303 0 7 C-1.32 6.34 -2.64 5.68 -4 5 C-4 4.01 -4 3.02 -4 2 C-2.68 1.34 -1.36 0.68 0 0 Z " fill="#F6CA36" transform="translate(339,246)"/>
</svg>
